<?xml version="1.0" encoding="UTF-8"?><svg id="a" xmlns="http://www.w3.org/2000/svg" viewBox="0 0 1000 1000"><defs><style>.b{fill:#eb5850;}.b,.c,.d,.e,.f,.g,.h,.i,.j,.k,.l,.m,.n,.o,.p,.q,.r,.s,.t,.u,.v,.w,.x,.y,.z,.aa,.ab,.ac,.ad,.ae,.af,.ag,.ah,.ai,.aj,.ak,.al,.am,.an,.ao,.ap,.aq,.ar,.as,.at,.au,.av,.aw,.ax,.ay,.az,.ba,.bb,.bc,.bd,.be,.bf,.bg,.bh,.bi,.bj,.bk,.bl,.bm,.bn,.bo,.bp,.bq,.br,.bs,.bt,.bu,.bv,.bw,.bx,.by,.bz,.ca,.cb,.cc,.cd,.ce,.cf,.cg,.ch,.ci,.cj,.ck,.cl,.cm,.cn,.co,.cp,.cq,.cr,.cs,.ct,.cu,.cv,.cw,.cx,.cy,.cz,.da,.db,.dc,.dd,.de,.df,.dg,.dh,.di{fill-rule:evenodd;}.c{fill:#f0847c;}.d{fill:#e73c34;}.e{fill:#f08f8a;}.f{fill:#f4b1ae;}.g{fill:#ee726b;}.h{fill:#e62a25;}.i{fill:#e7362d;}.j{fill:#e52725;}.k{fill:#e84d46;}.l{fill:#ec635d;}.m{fill:#f5b7b4;}.n{fill:#e6302b;}.o{fill:#f18982;}.p{fill:#f6c0bd;}.q{fill:#e41b1e;}.r{fill:#f4aca8;}.s{fill:#eb5e57;}.t{fill:#f29b95;}.u{fill:#fff;}.v{fill:#f4afab;}.w{fill:#ee756d;}.x{fill:#e8423b;}.y{fill:#ec6159;}.z{fill:#e4151b;}.aa{fill:#f3a49f;}.ab{fill:#ef7870;}.ac{fill:#f5b3af;}.ad{fill:#ea564e;}.ae{fill:#e84138;}.af{fill:#e94a42;}.ag{fill:#ec635c;}.ah{fill:#e4151c;}.ai{fill:#f5ada8;}.aj{fill:#ea5049;}.ak{fill:#f3a6a2;}.al{fill:#e73931;}.am{fill:#eb5951;}.an{fill:#f5b5b1;}.ao{fill:#f3aaa6;}.ap{fill:#ec665f;}.aq{fill:#e6302a;}.ar{fill:#f2a19d;}.as{fill:#e52321;}.at{fill:#f29f99;}.au{fill:#e83f37;}.av{fill:#f19690;}.aw{fill:#e62a27;}.ax{fill:#f18b83;}.ay{fill:#f0918c;}.az{fill:#eb5b53;}.ba{fill:#e51f1f;}.bb{fill:#f7c4c2;}.bc{fill:#f4b3b0;}.bd{fill:#e94740;}.be{fill:#ed6862;}.bf{fill:#ee7068;}.bg{fill:#e6332c;}.bh{fill:#f5bcb9;}.bi{fill:#f3a6a0;}.bj{fill:#eb5e56;}.bk{fill:#ed6860;}.bl{fill:#ed6b64;}.bm{fill:#e62d27;}.bn{fill:#ed6d65;}.bo{fill:#ec615b;}.bp{fill:#ef7871;}.bq{fill:#e8443b;}.br{fill:#e62d28;}.bs{fill:#f6c2c0;}.bt{fill:#e7362f;}.bu{fill:#ee706a;}.bv{fill:#f0867e;}.bw{fill:#e84239;}.bx{fill:#e52724;}.by{fill:#ea534b;}.bz{fill:#f1948f;}.ca{fill:#e41b1d;}.cb{fill:#e7392f;}.cc{fill:#f5b9b5;}.cd{fill:#f18881;}.ce{fill:#e9453d;}.cf{fill:#f6bbb8;}.cg{fill:#f29d97;}.ch{fill:#e51f21;}.ci{fill:#e52324;}.cj{fill:#e73c32;}.ck{fill:#ea5046;}.cl{fill:#ee756f;}.cm{fill:#e52322;}.cn{fill:#f08680;}.co{fill:#f0817b;}.cp{fill:#f0847d;}.cq{fill:#ef7f78;}.cr{fill:#e40f1b;}.cs{fill:#e51f1e;}.ct{fill:#e83f36;}.cu{fill:#f3a8a4;}.cv{fill:#f29f9a;}.cw{fill:#e9473f;}.cx{fill:#f3a8a3;}.cy{fill:#f6bebc;}.cz{fill:#f08f88;}.da{fill:#f1948d;}.db{fill:#ea5048;}.dc{fill:#ef7d76;}.dd{fill:#f5b9b7;}.de{fill:#ef7a73;}.df{fill:#ed6d66;}.dg{fill:#f19892;}.dh{fill:#e84a44;}.di{fill:#f18d86;}</style></defs><path class="cr" d="m500,13c268.23,0,487,218.77,487,487s-218.77,487-487,487S13,768.23,13,500,231.77,13,500,13h0Z"/><path class="cr" d="m500,437.27c196.43,0,356.64,116.44,356.64,259.2s-160.21,259.2-356.64,259.2-356.65-116.44-356.65-259.2,160.21-259.2,356.65-259.2h0Z"/><path class="cr" d="m500,438.71c195.73,0,355.36,116.01,355.36,258.25s-159.63,258.25-355.36,258.25-355.36-116.01-355.36-258.25,159.63-258.25,355.36-258.25h0Z"/><path class="cr" d="m500,440.15c195.02,0,354.07,115.58,354.07,257.31s-159.05,257.3-354.07,257.3-354.08-115.58-354.08-257.3,159.05-257.31,354.08-257.31h0Z"/><path class="cr" d="m500,441.59c194.31,0,352.79,115.16,352.79,256.36s-158.48,256.35-352.79,256.35-352.79-115.16-352.79-256.35,158.48-256.36,352.79-256.36h0Z"/><path class="cr" d="m500,443.04c193.6,0,351.5,114.73,351.5,255.41s-157.9,255.4-351.5,255.4-351.51-114.73-351.51-255.4,157.9-255.41,351.51-255.41h0Z"/><path class="cr" d="m500,444.48c192.89,0,350.22,114.31,350.22,254.46s-157.32,254.46-350.22,254.46-350.22-114.31-350.22-254.46,157.32-254.46,350.22-254.46h0Z"/><path class="cr" d="m500,445.92c192.18,0,348.93,113.88,348.93,253.51s-156.74,253.51-348.93,253.51-348.94-113.88-348.94-253.51,156.74-253.51,348.94-253.51h0Z"/><path class="cr" d="m500,447.36c191.48,0,347.64,113.45,347.64,252.56s-156.17,252.56-347.64,252.56-347.65-113.45-347.65-252.56,156.17-252.56,347.65-252.56h0Z"/><path class="cr" d="m500,448.81c190.77,0,346.36,113.03,346.36,251.61s-155.59,251.61-346.36,251.61-346.36-113.03-346.36-251.61,155.59-251.61,346.36-251.61h0Z"/><path class="cr" d="m500,450.25c190.06,0,345.07,112.6,345.07,250.67s-155.01,250.66-345.07,250.66-345.08-112.6-345.08-250.66,155.01-250.67,345.08-250.67h0Z"/><path class="cr" d="m500,451.69c189.35,0,343.79,112.17,343.79,249.72s-154.43,249.71-343.79,249.71-343.79-112.18-343.79-249.71,154.43-249.72,343.79-249.72h0Z"/><path class="cr" d="m500,453.13c188.64,0,342.5,111.75,342.5,248.77s-153.86,248.76-342.5,248.76-342.51-111.75-342.51-248.76,153.86-248.77,342.51-248.77h0Z"/><path class="cr" d="m500,454.58c187.94,0,341.21,111.32,341.21,247.82s-153.28,247.82-341.21,247.82-341.22-111.32-341.22-247.82,153.28-247.82,341.22-247.82h0Z"/><path class="cr" d="m500,456.02c187.23,0,339.93,110.9,339.93,246.87s-152.7,246.87-339.93,246.87-339.93-110.9-339.93-246.87,152.7-246.87,339.93-246.87h0Z"/><path class="cr" d="m500,457.46c186.52,0,338.64,110.47,338.64,245.92s-152.12,245.92-338.64,245.92-338.65-110.47-338.65-245.92,152.12-245.92,338.65-245.92h0Z"/><path class="cr" d="m500,458.9c185.81,0,337.36,110.04,337.36,244.98s-151.55,244.97-337.36,244.97-337.36-110.05-337.36-244.97,151.55-244.98,337.36-244.98h0Z"/><path class="cr" d="m500,460.35c185.1,0,336.07,109.62,336.07,244.03s-150.97,244.02-336.07,244.02-336.08-109.62-336.08-244.02,150.97-244.03,336.08-244.03h0Z"/><path class="cr" d="m500,461.79c184.39,0,334.79,109.19,334.79,243.08s-150.39,243.07-334.79,243.07-334.79-109.19-334.79-243.07,150.39-243.08,334.79-243.08h0Z"/><path class="cr" d="m500,463.23c183.69,0,333.5,108.77,333.5,242.13s-149.81,242.13-333.5,242.13-333.51-108.77-333.51-242.13,149.81-242.13,333.51-242.13h0Z"/><path class="cr" d="m500,464.67c182.98,0,332.21,108.34,332.21,241.18s-149.24,241.18-332.21,241.18-332.22-108.34-332.22-241.18,149.24-241.18,332.22-241.18h0Z"/><path class="cr" d="m500,466.12c182.27,0,330.93,107.91,330.93,240.23s-148.66,240.23-330.93,240.23-330.93-107.91-330.93-240.23,148.66-240.23,330.93-240.23h0Z"/><path class="cr" d="m500,467.56c181.56,0,329.64,107.49,329.64,239.29s-148.08,239.28-329.64,239.28-329.65-107.49-329.65-239.28,148.08-239.29,329.65-239.29h0Z"/><path class="cr" d="m500,469c180.85,0,328.36,107.06,328.36,238.34s-147.5,238.33-328.36,238.33-328.36-107.06-328.36-238.33,147.5-238.34,328.36-238.34h0Z"/><path class="cr" d="m500,470.45c180.15,0,327.07,106.64,327.07,237.39s-146.92,237.38-327.07,237.38-327.08-106.64-327.08-237.38,146.92-237.39,327.08-237.39h0Z"/><path class="cr" d="m500,471.89c179.44,0,325.78,106.21,325.78,236.44s-146.35,236.44-325.78,236.44-325.79-106.21-325.79-236.44,146.35-236.44,325.79-236.44h0Z"/><path class="cr" d="m500,473.33c178.73,0,324.5,105.78,324.5,235.49s-145.77,235.49-324.5,235.49-324.5-105.78-324.5-235.49,145.77-235.49,324.5-235.49h0Z"/><path class="cr" d="m500,474.77c178.02,0,323.21,105.36,323.21,234.54s-145.19,234.54-323.21,234.54-323.22-105.36-323.22-234.54,145.19-234.54,323.22-234.54h0Z"/><path class="cr" d="m500,476.22c177.31,0,321.93,104.93,321.93,233.59s-144.61,233.59-321.93,233.59-321.93-104.93-321.93-233.59,144.61-233.59,321.93-233.59h0Z"/><path class="cr" d="m500,477.66c176.6,0,320.64,104.51,320.64,232.65s-144.04,232.64-320.64,232.64-320.65-104.51-320.65-232.64,144.04-232.65,320.65-232.65h0Z"/><path class="cr" d="m500,479.1c175.9,0,319.36,104.08,319.36,231.7s-143.46,231.69-319.36,231.69-319.36-104.08-319.36-231.69,143.46-231.7,319.36-231.7h0Z"/><path class="cr" d="m500,480.54c175.19,0,318.07,103.65,318.07,230.75s-142.88,230.74-318.07,230.74-318.07-103.65-318.07-230.74,142.88-230.75,318.07-230.75h0Z"/><path class="cr" d="m500,481.99c174.48,0,316.78,103.23,316.78,229.8s-142.3,229.8-316.78,229.8-316.79-103.23-316.79-229.8,142.3-229.8,316.79-229.8h0Z"/><path class="cr" d="m500,483.43c173.77,0,315.5,102.8,315.5,228.85s-141.73,228.85-315.5,228.85-315.5-102.8-315.5-228.85,141.73-228.85,315.5-228.85h0Z"/><path class="cr" d="m500,484.87c173.06,0,314.21,102.38,314.21,227.9s-141.15,227.9-314.21,227.9-314.22-102.38-314.22-227.9,141.15-227.9,314.22-227.9h0Z"/><path class="cr" d="m500,486.31c172.35,0,312.93,101.95,312.93,226.95s-140.57,226.95-312.93,226.95-312.93-101.95-312.93-226.95,140.57-226.95,312.93-226.95h0Z"/><path class="cr" d="m500,487.76c171.65,0,311.64,101.52,311.64,226.01s-139.99,226-311.64,226-311.65-101.52-311.65-226,139.99-226.01,311.65-226.01h0Z"/><path class="cr" d="m500,489.2c170.94,0,310.35,101.1,310.35,225.06s-139.42,225.05-310.35,225.05-310.36-101.1-310.36-225.05,139.42-225.06,310.36-225.06h0Z"/><path class="cr" d="m500,490.64c170.23,0,309.07,100.67,309.07,224.11s-138.84,224.11-309.07,224.11-309.07-100.67-309.07-224.11,138.84-224.11,309.07-224.11h0Z"/><path class="cr" d="m500,492.09c169.52,0,307.78,100.24,307.78,223.16s-138.26,223.16-307.78,223.16-307.79-100.25-307.79-223.16,138.26-223.16,307.79-223.16h0Z"/><path class="cr" d="m500,493.53c168.81,0,306.5,99.82,306.5,222.21s-137.68,222.21-306.5,222.21-306.5-99.82-306.5-222.21,137.68-222.21,306.5-222.21h0Z"/><path class="cr" d="m500,494.97c168.11,0,305.21,99.39,305.21,221.26s-137.11,221.26-305.21,221.26-305.22-99.39-305.22-221.26,137.11-221.26,305.22-221.26h0Z"/><path class="cr" d="m500,496.41c167.4,0,303.93,98.97,303.93,220.32s-136.53,220.31-303.93,220.31-303.93-98.97-303.93-220.31,136.53-220.32,303.93-220.32h0Z"/><path class="cr" d="m500,497.86c166.69,0,302.64,98.54,302.64,219.37s-135.95,219.36-302.64,219.36-302.64-98.54-302.64-219.36,135.95-219.37,302.64-219.37h0Z"/><path class="cr" d="m500,499.3c165.98,0,301.35,98.12,301.35,218.42s-135.37,218.41-301.35,218.41-301.36-98.12-301.36-218.41,135.37-218.42,301.36-218.42h0Z"/><path class="cr" d="m500,500.74c165.27,0,300.07,97.69,300.07,217.47s-134.8,217.47-300.07,217.47-300.07-97.69-300.07-217.47,134.8-217.47,300.07-217.47h0Z"/><path class="cr" d="m500,502.18c164.56,0,298.78,97.26,298.78,216.52s-134.22,216.52-298.78,216.52-298.79-97.26-298.79-216.52,134.22-216.52,298.79-216.52h0Z"/><path class="cr" d="m500,503.62c163.86,0,297.5,96.84,297.5,215.57s-133.64,215.57-297.5,215.57-297.5-96.84-297.5-215.57,133.64-215.57,297.5-215.57h0Z"/><path class="cr" d="m500,505.07c163.15,0,296.21,96.41,296.21,214.62s-133.06,214.62-296.21,214.62-296.22-96.41-296.22-214.62,133.06-214.62,296.22-214.62h0Z"/><path class="cr" d="m500,506.51c162.44,0,294.92,95.99,294.92,213.68s-132.48,213.67-294.92,213.67-294.93-95.98-294.93-213.67,132.49-213.68,294.93-213.68h0Z"/><path class="cr" d="m500,507.95c161.73,0,293.64,95.56,293.64,212.73s-131.91,212.72-293.64,212.72-293.64-95.56-293.64-212.72,131.91-212.73,293.64-212.73h0Z"/><path class="z" d="m500,509.39c161.02,0,292.35,95.13,292.35,211.78s-131.33,211.78-292.35,211.78-292.36-95.13-292.36-211.78,131.33-211.78,292.36-211.78h0Z"/><path class="z" d="m500,510.84c160.32,0,291.07,94.71,291.07,210.83s-130.75,210.83-291.07,210.83-291.07-94.71-291.07-210.83,130.75-210.83,291.07-210.83h0Z"/><path class="z" d="m500,512.28c159.61,0,289.78,94.28,289.78,209.88s-130.17,209.88-289.78,209.88-289.79-94.28-289.79-209.88,130.17-209.88,289.79-209.88h0Z"/><path class="z" d="m500,513.72c158.9,0,288.5,93.85,288.5,208.93s-129.6,208.93-288.5,208.93-288.5-93.85-288.5-208.93,129.6-208.93,288.5-208.93h0Z"/><path class="z" d="m500,515.17c158.19,0,287.21,93.43,287.21,207.99s-129.02,207.98-287.21,207.98-287.21-93.43-287.21-207.98,129.02-207.99,287.21-207.99h0Z"/><path class="z" d="m500,516.61c157.48,0,285.92,93,285.92,207.04s-128.44,207.03-285.92,207.03-285.93-93-285.93-207.03,128.44-207.04,285.93-207.04h0Z"/><path class="z" d="m500,518.05c156.77,0,284.64,92.58,284.64,206.09s-127.86,206.08-284.64,206.08-284.64-92.58-284.64-206.08,127.86-206.09,284.64-206.09h0Z"/><path class="z" d="m500,519.49c156.07,0,283.35,92.15,283.35,205.14s-127.29,205.14-283.35,205.14-283.36-92.15-283.36-205.14,127.29-205.14,283.36-205.14h0Z"/><path class="z" d="m500,520.94c155.36,0,282.07,91.72,282.07,204.19s-126.71,204.19-282.07,204.19-282.07-91.72-282.07-204.19,126.71-204.19,282.07-204.19h0Z"/><path class="z" d="m500,522.38c154.65,0,280.78,91.3,280.78,203.24s-126.13,203.24-280.78,203.24-280.79-91.3-280.79-203.24,126.13-203.24,280.79-203.24h0Z"/><path class="z" d="m500,523.82c153.94,0,279.5,90.87,279.5,202.29s-125.55,202.29-279.5,202.29-279.5-90.87-279.5-202.29,125.55-202.29,279.5-202.29h0Z"/><path class="ah" d="m500,525.26c153.23,0,278.21,90.45,278.21,201.35s-124.98,201.34-278.21,201.34-278.21-90.45-278.21-201.34,124.98-201.35,278.21-201.35h0Z"/><path class="ah" d="m500,526.71c152.53,0,276.92,90.02,276.92,200.4s-124.4,200.39-276.92,200.39-276.93-90.02-276.93-200.39,124.4-200.4,276.93-200.4h0Z"/><path class="ah" d="m500,528.15c151.82,0,275.64,89.59,275.64,199.45s-123.82,199.44-275.64,199.44-275.64-89.59-275.64-199.44,123.82-199.45,275.64-199.45h0Z"/><path class="ah" d="m500,529.59c151.11,0,274.35,89.17,274.35,198.5s-123.24,198.5-274.35,198.5-274.36-89.17-274.36-198.5,123.24-198.5,274.36-198.5h0Z"/><path class="ah" d="m500,531.03c150.4,0,273.07,88.74,273.07,197.55s-122.67,197.55-273.07,197.55-273.07-88.74-273.07-197.55,122.67-197.55,273.07-197.55h0Z"/><path class="ca" d="m500,532.48c149.69,0,271.78,88.32,271.78,196.6s-122.09,196.6-271.78,196.6-271.78-88.32-271.78-196.6,122.09-196.6,271.78-196.6h0Z"/><path class="ca" d="m500,533.92c148.98,0,270.49,87.89,270.49,195.66s-121.51,195.65-270.49,195.65-270.5-87.89-270.5-195.65,121.51-195.66,270.5-195.66h0Z"/><path class="q" d="m500,535.36c148.28,0,269.21,87.46,269.21,194.71s-120.93,194.7-269.21,194.7-269.21-87.46-269.21-194.7,120.93-194.71,269.21-194.71h0Z"/><path class="q" d="m500,536.81c147.57,0,267.92,87.04,267.92,193.76s-120.36,193.75-267.92,193.75-267.93-87.04-267.93-193.75,120.36-193.76,267.93-193.76h0Z"/><path class="q" d="m500,538.25c146.86,0,266.64,86.61,266.64,192.81s-119.78,192.81-266.64,192.81-266.64-86.61-266.64-192.81,119.78-192.81,266.64-192.81h0Z"/><path class="q" d="m500,539.69c146.15,0,265.35,86.19,265.35,191.86s-119.2,191.86-265.35,191.86-265.36-86.19-265.36-191.86,119.2-191.86,265.36-191.86h0Z"/><path class="q" d="m500,541.13c145.44,0,264.07,85.76,264.07,190.91s-118.62,190.91-264.07,190.91-264.07-85.76-264.07-190.91,118.62-190.91,264.07-190.91h0Z"/><path class="q" d="m500,542.58c144.73,0,262.78,85.33,262.78,189.96s-118.05,189.96-262.78,189.96-262.78-85.33-262.78-189.96,118.04-189.96,262.78-189.96h0Z"/><path class="q" d="m500,544.02c144.03,0,261.49,84.91,261.49,189.02s-117.47,189.01-261.49,189.01-261.5-84.91-261.5-189.01,117.47-189.02,261.5-189.02h0Z"/><path class="q" d="m500,545.46c143.32,0,260.21,84.48,260.21,188.07s-116.89,188.06-260.21,188.06-260.21-84.48-260.21-188.06,116.89-188.07,260.21-188.07h0Z"/><path class="cs" d="m500,546.9c142.61,0,258.92,84.06,258.92,187.12s-116.31,187.12-258.92,187.12-258.93-84.06-258.93-187.12,116.31-187.12,258.93-187.12h0Z"/><path class="cs" d="m500,548.35c141.9,0,257.64,83.63,257.64,186.17s-115.73,186.17-257.64,186.17-257.64-83.63-257.64-186.17,115.73-186.17,257.64-186.17h0Z"/><path class="cs" d="m500,549.79c141.19,0,256.35,83.2,256.35,185.22s-115.16,185.22-256.35,185.22-256.35-83.2-256.35-185.22,115.16-185.22,256.35-185.22h0Z"/><path class="ba" d="m500,551.23c140.49,0,255.06,82.78,255.06,184.27s-114.58,184.27-255.06,184.27-255.07-82.78-255.07-184.27,114.58-184.27,255.07-184.27h0Z"/><path class="ba" d="m500,552.67c139.78,0,253.78,82.35,253.78,183.32s-114,183.32-253.78,183.32-253.78-82.35-253.78-183.32,114-183.32,253.78-183.32h0Z"/><path class="ba" d="m500,554.12c139.07,0,252.49,81.92,252.49,182.38s-113.42,182.37-252.49,182.37-252.5-81.92-252.5-182.37,113.42-182.38,252.5-182.38h0Z"/><path class="ba" d="m500,555.56c138.36,0,251.21,81.5,251.21,181.43s-112.85,181.42-251.21,181.42-251.21-81.5-251.21-181.42,112.85-181.43,251.21-181.43h0Z"/><path class="ba" d="m500,557c137.65,0,249.92,81.07,249.92,180.48s-112.27,180.48-249.92,180.48-249.93-81.07-249.93-180.48,112.27-180.48,249.93-180.48h0Z"/><path class="ch" d="m500,558.44c136.94,0,248.64,80.65,248.64,179.53s-111.69,179.53-248.64,179.53-248.64-80.65-248.64-179.53,111.69-179.53,248.64-179.53h0Z"/><path class="ch" d="m500,559.89c136.24,0,247.35,80.22,247.35,178.58s-111.11,178.58-247.35,178.58-247.35-80.22-247.35-178.58,111.11-178.58,247.35-178.58h0Z"/><path class="ch" d="m500,561.33c135.53,0,246.06,79.79,246.06,177.63s-110.54,177.63-246.06,177.63-246.07-79.79-246.07-177.63,110.54-177.63,246.07-177.63h0Z"/><path class="as" d="m500,562.77c134.82,0,244.78,79.37,244.78,176.69s-109.96,176.68-244.78,176.68-244.78-79.37-244.78-176.68,109.96-176.69,244.78-176.69h0Z"/><path class="as" d="m500,564.22c134.11,0,243.49,78.94,243.49,175.74s-109.38,175.73-243.49,175.73-243.5-78.94-243.5-175.73,109.38-175.74,243.5-175.74h0Z"/><path class="as" d="m500,565.66c133.4,0,242.21,78.52,242.21,174.79s-108.8,174.78-242.21,174.78-242.21-78.52-242.21-174.78,108.8-174.79,242.21-174.79h0Z"/><path class="as" d="m500,567.1c132.7,0,240.92,78.09,240.92,173.84s-108.23,173.84-240.92,173.84-240.92-78.09-240.92-173.84,108.23-173.84,240.92-173.84h0Z"/><path class="cm" d="m500,568.54c131.99,0,239.63,77.66,239.63,172.89s-107.65,172.89-239.63,172.89-239.64-77.66-239.64-172.89,107.65-172.89,239.64-172.89h0Z"/><path class="cm" d="m500,569.99c131.28,0,238.35,77.24,238.35,171.94s-107.07,171.94-238.35,171.94-238.35-77.24-238.35-171.94,107.07-171.94,238.35-171.94h0Z"/><path class="cm" d="m500,571.43c130.57,0,237.06,76.81,237.06,170.99s-106.49,170.99-237.06,170.99-237.07-76.81-237.07-170.99,106.49-170.99,237.07-170.99h0Z"/><path class="cm" d="m500,572.87c129.86,0,235.78,76.39,235.78,170.05s-105.91,170.04-235.78,170.04-235.78-76.39-235.78-170.04,105.92-170.05,235.78-170.05h0Z"/><path class="cm" d="m500,574.31c129.15,0,234.49,75.96,234.49,169.1s-105.34,169.09-234.49,169.09-234.49-75.96-234.49-169.09,105.34-169.1,234.49-169.1h0Z"/><path class="ci" d="m500,575.76c128.45,0,233.21,75.53,233.21,168.15s-104.76,168.15-233.21,168.15-233.21-75.53-233.21-168.15,104.76-168.15,233.21-168.15h0Z"/><path class="bx" d="m500,577.2c127.74,0,231.92,75.11,231.92,167.2s-104.18,167.2-231.92,167.2-231.92-75.11-231.92-167.2,104.18-167.2,231.92-167.2h0Z"/><path class="bx" d="m500,578.64c127.03,0,230.63,74.68,230.63,166.25s-103.6,166.25-230.63,166.25-230.64-74.68-230.64-166.25,103.6-166.25,230.64-166.25h0Z"/><path class="bx" d="m500,580.08c126.32,0,229.35,74.26,229.35,165.3s-103.03,165.3-229.35,165.3-229.35-74.26-229.35-165.3,103.03-165.3,229.35-165.3h0Z"/><path class="bx" d="m500,581.53c125.61,0,228.06,73.83,228.06,164.35s-102.45,164.35-228.06,164.35-228.07-73.83-228.07-164.35,102.45-164.35,228.07-164.35h0Z"/><path class="bx" d="m500,582.97c124.91,0,226.78,73.4,226.78,163.41s-101.87,163.4-226.78,163.4-226.78-73.4-226.78-163.4,101.87-163.41,226.78-163.41h0Z"/><path class="j" d="m500,584.41c124.2,0,225.49,72.98,225.49,162.46s-101.29,162.46-225.49,162.46-225.49-72.98-225.49-162.46,101.29-162.46,225.49-162.46h0Z"/><path class="j" d="m500,585.86c123.49,0,224.21,72.55,224.21,161.51s-100.72,161.51-224.21,161.51-224.21-72.55-224.21-161.51,100.72-161.51,224.21-161.51h0Z"/><path class="h" d="m500,587.3c122.78,0,222.92,72.13,222.92,160.56s-100.14,160.56-222.92,160.56-222.92-72.13-222.92-160.56,100.14-160.56,222.92-160.56h0Z"/><path class="aw" d="m500,588.74c122.07,0,221.63,71.7,221.63,159.61s-99.56,159.61-221.63,159.61-221.64-71.7-221.64-159.61,99.56-159.61,221.64-159.61h0Z"/><path class="aw" d="m500,590.18c121.36,0,220.35,71.27,220.35,158.66s-98.98,158.66-220.35,158.66-220.35-71.27-220.35-158.66,98.98-158.66,220.35-158.66h0Z"/><path class="aw" d="m500,591.63c120.66,0,219.06,70.85,219.06,157.72s-98.41,157.71-219.06,157.71-219.06-70.85-219.06-157.71,98.41-157.72,219.06-157.72h0Z"/><path class="aw" d="m500,593.07c119.95,0,217.78,70.42,217.78,156.77s-97.83,156.76-217.78,156.76-217.78-70.42-217.78-156.76,97.83-156.77,217.78-156.77h0Z"/><path class="bm" d="m500,594.51c119.24,0,216.49,69.99,216.49,155.82s-97.25,155.82-216.49,155.82-216.49-69.99-216.49-155.82,97.25-155.82,216.49-155.82h0Z"/><path class="br" d="m500,595.95c118.53,0,215.2,69.57,215.2,154.87s-96.67,154.87-215.2,154.87-215.21-69.57-215.21-154.87,96.67-154.87,215.21-154.87h0Z"/><path class="br" d="m500,597.4c117.82,0,213.92,69.14,213.92,153.92s-96.1,153.92-213.92,153.92-213.92-69.14-213.92-153.92,96.1-153.92,213.92-153.92h0Z"/><path class="br" d="m500,598.84c117.11,0,212.63,68.72,212.63,152.97s-95.52,152.97-212.63,152.97-212.64-68.72-212.64-152.97,95.52-152.97,212.64-152.97h0Z"/><path class="br" d="m500,600.28c116.41,0,211.35,68.29,211.35,152.03s-94.94,152.02-211.35,152.02-211.35-68.29-211.35-152.02,94.94-152.03,211.35-152.03h0Z"/><path class="aq" d="m500,601.72c115.7,0,210.06,67.86,210.06,151.08s-94.36,151.07-210.06,151.07-210.06-67.86-210.06-151.07,94.36-151.08,210.06-151.08h0Z"/><path class="aq" d="m500,603.17c114.99,0,208.78,67.44,208.78,150.13s-93.78,150.12-208.78,150.12-208.78-67.44-208.78-150.12,93.79-150.13,208.78-150.13h0Z"/><path class="aq" d="m500,604.61c114.28,0,207.49,67.01,207.49,149.18s-93.21,149.18-207.49,149.18-207.49-67.01-207.49-149.18,93.21-149.18,207.49-149.18h0Z"/><path class="n" d="m500,606.05c113.57,0,206.2,66.59,206.2,148.23s-92.63,148.23-206.2,148.23-206.21-66.59-206.21-148.23,92.63-148.23,206.21-148.23h0Z"/><path class="n" d="m500,607.49c112.87,0,204.92,66.16,204.92,147.28s-92.05,147.28-204.92,147.28-204.92-66.16-204.92-147.28,92.05-147.28,204.92-147.28h0Z"/><path class="bg" d="m500,608.94c112.16,0,203.63,65.73,203.63,146.33s-91.47,146.33-203.63,146.33-203.63-65.73-203.63-146.33,91.47-146.33,203.63-146.33h0Z"/><path class="bg" d="m500,610.38c111.45,0,202.35,65.31,202.35,145.39s-90.9,145.38-202.35,145.38-202.35-65.31-202.35-145.38,90.9-145.39,202.35-145.39h0Z"/><path class="bg" d="m500,611.82c110.74,0,201.06,64.88,201.06,144.44s-90.32,144.43-201.06,144.43-201.06-64.88-201.06-144.43,90.32-144.44,201.06-144.44h0Z"/><path class="i" d="m500,613.27c110.03,0,199.77,64.46,199.77,143.49s-89.74,143.48-199.77,143.48-199.78-64.46-199.78-143.48,89.74-143.49,199.78-143.49h0Z"/><path class="i" d="m500,614.71c109.32,0,198.49,64.03,198.49,142.54s-89.16,142.54-198.49,142.54-198.49-64.03-198.49-142.54,89.16-142.54,198.49-142.54h0Z"/><path class="i" d="m500,616.15c108.62,0,197.2,63.6,197.2,141.59s-88.59,141.59-197.2,141.59-197.21-63.6-197.21-141.59,88.59-141.59,197.21-141.59h0Z"/><path class="bt" d="m500,617.59c107.91,0,195.92,63.18,195.92,140.64s-88.01,140.64-195.92,140.64-195.92-63.18-195.92-140.64,88.01-140.64,195.92-140.64h0Z"/><path class="bt" d="m500,619.04c107.2,0,194.63,62.75,194.63,139.69s-87.43,139.69-194.63,139.69-194.63-62.75-194.63-139.69,87.43-139.69,194.63-139.69h0Z"/><path class="cb" d="m500,620.48c106.49,0,193.35,62.33,193.35,138.75s-86.85,138.74-193.35,138.74-193.35-62.33-193.35-138.74,86.85-138.75,193.35-138.75h0Z"/><path class="al" d="m500,621.92c105.78,0,192.06,61.9,192.06,137.8s-86.28,137.79-192.06,137.79-192.06-61.9-192.06-137.79,86.28-137.8,192.06-137.8h0Z"/><path class="al" d="m500,623.36c105.08,0,190.77,61.47,190.77,136.85s-85.7,136.85-190.77,136.85-190.78-61.47-190.78-136.85,85.7-136.85,190.78-136.85h0Z"/><path class="cj" d="m500,624.8c104.37,0,189.49,61.05,189.49,135.9s-85.12,135.9-189.49,135.9-189.49-61.05-189.49-135.9,85.12-135.9,189.49-135.9h0Z"/><path class="cj" d="m500,626.25c103.66,0,188.2,60.62,188.2,134.95s-84.54,134.95-188.2,134.95-188.21-60.62-188.21-134.95,84.54-134.95,188.21-134.95h0Z"/><path class="cj" d="m500,627.69c102.95,0,186.92,60.2,186.92,134s-83.97,134-186.92,134-186.92-60.2-186.92-134,83.97-134,186.92-134h0Z"/><path class="d" d="m500,629.13c102.24,0,185.63,59.77,185.63,133.05s-83.39,133.05-185.63,133.05-185.63-59.77-185.63-133.05,83.39-133.05,185.63-133.05h0Z"/><path class="d" d="m500,630.58c101.53,0,184.34,59.34,184.34,132.11s-82.81,132.1-184.34,132.1-184.35-59.34-184.35-132.1,82.81-132.11,184.35-132.11h0Z"/><path class="ct" d="m500,632.02c100.83,0,183.06,58.92,183.06,131.16s-82.23,131.16-183.06,131.16-183.06-58.92-183.06-131.16,82.23-131.16,183.06-131.16h0Z"/><path class="ct" d="m500,633.46c100.12,0,181.77,58.49,181.77,130.21s-81.66,130.21-181.77,130.21-181.78-58.49-181.78-130.21,81.66-130.21,181.78-130.21h0Z"/><path class="au" d="m500,634.9c99.41,0,180.49,58.07,180.49,129.26s-81.08,129.26-180.49,129.26-180.49-58.07-180.49-129.26,81.08-129.26,180.49-129.26h0Z"/><path class="ae" d="m500,636.35c98.7,0,179.2,57.64,179.2,128.31s-80.5,128.31-179.2,128.31-179.2-57.64-179.2-128.31,80.5-128.31,179.2-128.31h0Z"/><path class="ae" d="m500,637.79c97.99,0,177.92,57.21,177.92,127.36s-79.92,127.36-177.92,127.36-177.92-57.21-177.92-127.36,79.92-127.36,177.92-127.36h0Z"/><path class="bw" d="m500,639.23c97.28,0,176.63,56.79,176.63,126.42s-79.34,126.41-176.63,126.41-176.63-56.79-176.63-126.41,79.34-126.42,176.63-126.42h0Z"/><path class="bw" d="m500,640.67c96.58,0,175.34,56.36,175.34,125.47s-78.77,125.46-175.34,125.46-175.35-56.36-175.35-125.46,78.77-125.47,175.35-125.47h0Z"/><path class="x" d="m500,642.12c95.87,0,174.06,55.93,174.06,124.52s-78.19,124.52-174.06,124.52-174.06-55.93-174.06-124.52,78.19-124.52,174.06-124.52h0Z"/><path class="bq" d="m500,643.56c95.16,0,172.77,55.51,172.77,123.57s-77.61,123.57-172.77,123.57-172.78-55.51-172.78-123.57,77.61-123.57,172.78-123.57h0Z"/><path class="bq" d="m500,645c94.45,0,171.49,55.08,171.49,122.62s-77.03,122.62-171.49,122.62-171.49-55.08-171.49-122.62,77.03-122.62,171.49-122.62h0Z"/><path class="ce" d="m500,646.45c93.74,0,170.2,54.66,170.2,121.67s-76.46,121.67-170.2,121.67-170.2-54.66-170.2-121.67,76.46-121.67,170.2-121.67h0Z"/><path class="ce" d="m500,647.89c93.04,0,168.91,54.23,168.91,120.72s-75.88,120.72-168.91,120.72-168.92-54.23-168.92-120.72,75.88-120.72,168.92-120.72h0Z"/><path class="cw" d="m500,649.33c92.33,0,167.63,53.8,167.63,119.78s-75.3,119.77-167.63,119.77-167.63-53.8-167.63-119.77,75.3-119.78,167.63-119.78h0Z"/><path class="bd" d="m500,650.77c91.62,0,166.34,53.38,166.34,118.83s-74.72,118.83-166.34,118.83-166.35-53.38-166.35-118.83,74.72-118.83,166.35-118.83h0Z"/><path class="bd" d="m500,652.22c90.91,0,165.06,52.95,165.06,117.88s-74.15,117.88-165.06,117.88-165.06-52.95-165.06-117.88,74.15-117.88,165.06-117.88h0Z"/><path class="af" d="m500,653.66c90.2,0,163.77,52.53,163.77,116.93s-73.57,116.93-163.77,116.93-163.77-52.53-163.77-116.93,73.57-116.93,163.77-116.93h0Z"/><path class="af" d="m500,655.1c89.49,0,162.49,52.1,162.49,115.98s-72.99,115.98-162.49,115.98-162.49-52.1-162.49-115.98,72.99-115.98,162.49-115.98h0Z"/><path class="af" d="m500,656.54c88.79,0,161.2,51.67,161.2,115.03s-72.41,115.03-161.2,115.03-161.2-51.67-161.2-115.03,72.41-115.03,161.2-115.03h0Z"/><path class="dh" d="m500,657.99c88.08,0,159.91,51.25,159.91,114.09s-71.84,114.08-159.91,114.08-159.92-51.25-159.92-114.08,71.84-114.09,159.92-114.09h0Z"/><path class="dh" d="m500,659.43c87.37,0,158.63,50.82,158.63,113.14s-71.26,113.13-158.63,113.13-158.63-50.82-158.63-113.13,71.26-113.14,158.63-113.14h0Z"/><path class="k" d="m500,660.87c86.66,0,157.34,50.4,157.34,112.19s-70.68,112.19-157.34,112.19-157.34-50.4-157.34-112.19,70.68-112.19,157.34-112.19h0Z"/><path class="ck" d="m500,662.31c85.95,0,156.06,49.97,156.06,111.24s-70.1,111.24-156.06,111.24-156.06-49.97-156.06-111.24,70.1-111.24,156.06-111.24h0Z"/><path class="ck" d="m500,663.76c85.25,0,154.77,49.54,154.77,110.29s-69.53,110.29-154.77,110.29-154.77-49.54-154.77-110.29,69.53-110.29,154.77-110.29h0Z"/><path class="db" d="m500,665.2c84.54,0,153.48,49.12,153.48,109.34s-68.95,109.34-153.48,109.34-153.49-49.12-153.49-109.34,68.95-109.34,153.49-109.34h0Z"/><path class="db" d="m500,666.64c83.83,0,152.2,48.69,152.2,108.39s-68.37,108.39-152.2,108.39-152.2-48.69-152.2-108.39,68.37-108.39,152.2-108.39h0Z"/><path class="aj" d="m500,668.08c83.12,0,150.91,48.27,150.91,107.45s-67.79,107.44-150.91,107.44-150.92-48.27-150.92-107.44,67.79-107.45,150.92-107.45h0Z"/><path class="by" d="m500,669.53c82.41,0,149.63,47.84,149.63,106.5s-67.22,106.49-149.63,106.49-149.63-47.84-149.63-106.49,67.22-106.5,149.63-106.5h0Z"/><path class="by" d="m500,670.97c81.7,0,148.34,47.41,148.34,105.55s-66.64,105.55-148.34,105.55-148.34-47.41-148.34-105.55,66.64-105.55,148.34-105.55h0Z"/><path class="ad" d="m500,672.41c81,0,147.06,46.99,147.06,104.6s-66.06,104.6-147.06,104.6-147.06-46.99-147.06-104.6,66.06-104.6,147.06-104.6h0Z"/><path class="ad" d="m500,673.85c80.29,0,145.77,46.56,145.77,103.65s-65.48,103.65-145.77,103.65-145.77-46.56-145.77-103.65,65.48-103.65,145.77-103.65h0Z"/><path class="ad" d="m500,675.3c79.58,0,144.48,46.14,144.48,102.7s-64.9,102.7-144.48,102.7-144.49-46.14-144.49-102.7,64.9-102.7,144.49-102.7h0Z"/><path class="b" d="m500,676.74c78.87,0,143.2,45.71,143.2,101.75s-64.33,101.75-143.2,101.75-143.2-45.71-143.2-101.75,64.33-101.75,143.2-101.75h0Z"/><path class="b" d="m500,678.18c78.16,0,141.91,45.28,141.91,100.81s-63.75,100.8-141.91,100.8-141.91-45.28-141.91-100.8,63.75-100.81,141.91-100.81h0Z"/><path class="am" d="m500,679.63c77.46,0,140.63,44.86,140.63,99.86s-63.17,99.86-140.63,99.86-140.63-44.86-140.63-99.86,63.17-99.86,140.63-99.86h0Z"/><path class="az" d="m500,681.07c76.75,0,139.34,44.43,139.34,98.91s-62.59,98.91-139.34,98.91-139.34-44.43-139.34-98.91,62.59-98.91,139.34-98.91h0Z"/><path class="az" d="m500,682.51c76.04,0,138.05,44,138.05,97.96s-62.02,97.96-138.05,97.96-138.06-44-138.06-97.96,62.02-97.96,138.06-97.96h0Z"/><path class="az" d="m500,683.95c75.33,0,136.77,43.58,136.77,97.01s-61.44,97.01-136.77,97.01-136.77-43.58-136.77-97.01,61.44-97.01,136.77-97.01h0Z"/><path class="az" d="m500,685.4c74.62,0,135.48,43.15,135.48,96.06s-60.86,96.06-135.48,96.06-135.49-43.15-135.49-96.06,60.86-96.06,135.49-96.06h0Z"/><path class="bj" d="m500,686.84c73.91,0,134.2,42.73,134.2,95.12s-60.28,95.11-134.2,95.11-134.2-42.73-134.2-95.11,60.28-95.12,134.2-95.12h0Z"/><path class="s" d="m500,688.28c73.21,0,132.91,42.3,132.91,94.17s-59.71,94.17-132.91,94.17-132.91-42.3-132.91-94.17,59.71-94.17,132.91-94.17h0Z"/><path class="s" d="m500,689.72c72.5,0,131.63,41.87,131.63,93.22s-59.13,93.22-131.63,93.22-131.63-41.87-131.63-93.22,59.13-93.22,131.63-93.22h0Z"/><path class="y" d="m500,691.17c71.79,0,130.34,41.45,130.34,92.27s-58.55,92.27-130.34,92.27-130.34-41.45-130.34-92.27,58.55-92.27,130.34-92.27h0Z"/><path class="y" d="m500,692.61c71.08,0,129.05,41.02,129.05,91.32s-57.97,91.32-129.05,91.32-129.06-41.02-129.06-91.32,57.97-91.32,129.06-91.32h0Z"/><path class="bo" d="m500,694.05c70.37,0,127.77,40.6,127.77,90.37s-57.4,90.37-127.77,90.37-127.77-40.6-127.77-90.37,57.4-90.37,127.77-90.37h0Z"/><path class="ag" d="m500,695.49c69.66,0,126.48,40.17,126.48,89.42s-56.82,89.42-126.48,89.42-126.48-40.17-126.48-89.42,56.82-89.42,126.48-89.42h0Z"/><path class="ag" d="m500,696.94c68.96,0,125.2,39.74,125.2,88.48s-56.24,88.47-125.2,88.47-125.2-39.74-125.2-88.47,56.24-88.48,125.2-88.48h0Z"/><path class="l" d="m500,698.38c68.25,0,123.91,39.32,123.91,87.53s-55.66,87.53-123.91,87.53-123.91-39.32-123.91-87.53,55.66-87.53,123.91-87.53h0Z"/><path class="l" d="m500,699.82c67.54,0,122.63,38.89,122.63,86.58s-55.09,86.58-122.63,86.58-122.63-38.89-122.63-86.58,55.09-86.58,122.63-86.58h0Z"/><path class="ap" d="m500,701.26c66.83,0,121.34,38.47,121.34,85.63s-54.51,85.63-121.34,85.63-121.34-38.47-121.34-85.63,54.51-85.63,121.34-85.63h0Z"/><path class="bk" d="m500,702.71c66.12,0,120.05,38.04,120.05,84.68s-53.93,84.68-120.05,84.68-120.06-38.04-120.06-84.68,53.93-84.68,120.06-84.68h0Z"/><path class="bk" d="m500,704.15c65.42,0,118.77,37.61,118.77,83.73s-53.35,83.73-118.77,83.73-118.77-37.61-118.77-83.73,53.35-83.73,118.77-83.73h0Z"/><path class="be" d="m500,705.59c64.71,0,117.48,37.19,117.48,82.79s-52.77,82.78-117.48,82.78-117.48-37.19-117.48-82.78,52.78-82.79,117.48-82.79h0Z"/><path class="be" d="m500,707.04c64,0,116.2,36.76,116.2,81.84s-52.2,81.83-116.2,81.83-116.2-36.76-116.2-81.83,52.2-81.84,116.2-81.84h0Z"/><path class="bl" d="m500,708.48c63.29,0,114.91,36.34,114.91,80.89s-51.62,80.89-114.91,80.89-114.91-36.34-114.91-80.89,51.62-80.89,114.91-80.89h0Z"/><path class="bn" d="m500,709.92c62.58,0,113.62,35.91,113.62,79.94s-51.04,79.94-113.62,79.94-113.63-35.91-113.63-79.94,51.04-79.94,113.63-79.94h0Z"/><path class="bn" d="m500,711.36c61.87,0,112.34,35.48,112.34,78.99s-50.46,78.99-112.34,78.99-112.34-35.48-112.34-78.99,50.46-78.99,112.34-78.99h0Z"/><path class="df" d="m500,712.81c61.17,0,111.05,35.06,111.05,78.04s-49.89,78.04-111.05,78.04-111.05-35.06-111.05-78.04,49.89-78.04,111.05-78.04h0Z"/><path class="bf" d="m500,714.25c60.46,0,109.77,34.63,109.77,77.09s-49.31,77.09-109.77,77.09-109.77-34.63-109.77-77.09,49.31-77.09,109.77-77.09h0Z"/><path class="bf" d="m500,715.69c59.75,0,108.48,34.2,108.48,76.15s-48.73,76.14-108.48,76.14-108.48-34.21-108.48-76.14,48.73-76.15,108.48-76.15h0Z"/><path class="bu" d="m500,717.13c59.04,0,107.2,33.78,107.2,75.2s-48.15,75.2-107.2,75.2-107.2-33.78-107.2-75.2,48.15-75.2,107.2-75.2h0Z"/><path class="bu" d="m500,718.58c58.33,0,105.91,33.35,105.91,74.25s-47.58,74.25-105.91,74.25-105.91-33.35-105.91-74.25,47.58-74.25,105.91-74.25h0Z"/><path class="g" d="m500,720.02c57.63,0,104.62,32.93,104.62,73.3s-47,73.3-104.62,73.3-104.63-32.93-104.63-73.3,47-73.3,104.63-73.3h0Z"/><path class="w" d="m500,721.46c56.92,0,103.34,32.5,103.34,72.35s-46.42,72.35-103.34,72.35-103.34-32.5-103.34-72.35,46.42-72.35,103.34-72.35h0Z"/><path class="w" d="m500,722.9c56.21,0,102.05,32.07,102.05,71.4s-45.84,71.4-102.05,71.4-102.05-32.07-102.05-71.4,45.84-71.4,102.05-71.4h0Z"/><path class="cl" d="m500,724.35c55.5,0,100.77,31.65,100.77,70.45s-45.27,70.45-100.77,70.45-100.77-31.65-100.77-70.45,45.27-70.45,100.77-70.45h0Z"/><path class="cl" d="m500,725.79c54.79,0,99.48,31.22,99.48,69.51s-44.69,69.5-99.48,69.5-99.48-31.22-99.48-69.5,44.69-69.51,99.48-69.51h0Z"/><path class="ab" d="m500,727.23c54.08,0,98.19,30.8,98.19,68.56s-44.11,68.56-98.19,68.56-98.2-30.8-98.2-68.56,44.11-68.56,98.2-68.56h0Z"/><path class="bp" d="m500,728.67c53.38,0,96.91,30.37,96.91,67.61s-43.53,67.61-96.91,67.61-96.91-30.37-96.91-67.61,43.53-67.61,96.91-67.61h0Z"/><path class="bp" d="m500,730.12c52.67,0,95.62,29.94,95.62,66.66s-42.96,66.66-95.62,66.66-95.62-29.94-95.62-66.66,42.96-66.66,95.62-66.66h0Z"/><path class="de" d="m500,731.56c51.96,0,94.34,29.52,94.34,65.71s-42.38,65.71-94.34,65.71-94.34-29.52-94.34-65.71,42.38-65.71,94.34-65.71h0Z"/><path class="de" d="m500,733c51.25,0,93.05,29.09,93.05,64.76s-41.8,64.76-93.05,64.76-93.05-29.09-93.05-64.76,41.8-64.76,93.05-64.76h0Z"/><path class="de" d="m500,734.44c50.54,0,91.77,28.67,91.77,63.82s-41.22,63.81-91.77,63.81-91.77-28.67-91.77-63.81,41.22-63.82,91.77-63.82h0Z"/><path class="dc" d="m500,735.89c49.84,0,90.48,28.24,90.48,62.87s-40.64,62.87-90.48,62.87-90.48-28.24-90.48-62.87,40.64-62.87,90.48-62.87h0Z"/><path class="dc" d="m500,737.33c49.13,0,89.19,27.81,89.19,61.92s-40.07,61.92-89.19,61.92-89.2-27.81-89.2-61.92,40.07-61.92,89.2-61.92h0Z"/><path class="cq" d="m500,738.77c48.42,0,87.91,27.39,87.91,60.97s-39.49,60.97-87.91,60.97-87.91-27.39-87.91-60.97,39.49-60.97,87.91-60.97h0Z"/><path class="cq" d="m500,740.22c47.71,0,86.62,26.96,86.62,60.02s-38.91,60.02-86.62,60.02-86.62-26.96-86.62-60.02,38.91-60.02,86.62-60.02h0Z"/><path class="cq" d="m500,741.66c47,0,85.34,26.54,85.34,59.07s-38.33,59.07-85.34,59.07-85.34-26.54-85.34-59.07,38.33-59.07,85.34-59.07h0Z"/><path class="co" d="m500,743.1c46.29,0,84.05,26.11,84.05,58.12s-37.76,58.12-84.05,58.12-84.05-26.11-84.05-58.12,37.76-58.12,84.05-58.12h0Z"/><path class="co" d="m500,744.54c45.59,0,82.77,25.68,82.77,57.18s-37.18,57.17-82.77,57.17-82.77-25.68-82.77-57.17,37.18-57.18,82.77-57.18h0Z"/><path class="c" d="m500,745.99c44.88,0,81.48,25.26,81.48,56.23s-36.6,56.23-81.48,56.23-81.48-25.26-81.48-56.23,36.6-56.23,81.48-56.23h0Z"/><path class="cp" d="m500,747.43c44.17,0,80.19,24.83,80.19,55.28s-36.02,55.28-80.19,55.28-80.19-24.83-80.19-55.28,36.02-55.28,80.19-55.28h0Z"/><path class="cp" d="m500,748.87c43.46,0,78.91,24.41,78.91,54.33s-35.45,54.33-78.91,54.33-78.91-24.41-78.91-54.33,35.45-54.33,78.91-54.33h0Z"/><path class="bv" d="m500,750.31c42.75,0,77.62,23.98,77.62,53.38s-34.87,53.38-77.62,53.38-77.62-23.98-77.62-53.38,34.87-53.38,77.62-53.38h0Z"/><path class="bv" d="m500,751.76c42.04,0,76.34,23.55,76.34,52.43s-34.29,52.43-76.34,52.43-76.34-23.55-76.34-52.43,34.29-52.43,76.34-52.43h0Z"/><path class="cn" d="m500,753.2c41.34,0,75.05,23.13,75.05,51.48s-33.71,51.48-75.05,51.48-75.05-23.13-75.05-51.48,33.71-51.48,75.05-51.48h0Z"/><path class="cd" d="m500,754.64c40.63,0,73.76,22.7,73.76,50.54s-33.14,50.54-73.76,50.54-73.76-22.7-73.76-50.54,33.14-50.54,73.76-50.54h0Z"/><path class="cd" d="m500,756.09c39.92,0,72.48,22.27,72.48,49.59s-32.56,49.59-72.48,49.59-72.48-22.28-72.48-49.59,32.56-49.59,72.48-49.59h0Z"/><path class="o" d="m500,757.53c39.21,0,71.19,21.85,71.19,48.64s-31.98,48.64-71.19,48.64-71.19-21.85-71.19-48.64,31.98-48.64,71.19-48.64h0Z"/><path class="o" d="m500.01,758.97c38.5,0,69.91,21.42,69.91,47.69s-31.4,47.69-69.91,47.69-69.91-21.42-69.91-47.69,31.4-47.69,69.91-47.69h0Z"/><path class="ax" d="m500.01,760.41c37.8,0,68.62,21,68.62,46.74s-30.83,46.74-68.62,46.74-68.62-21-68.62-46.74,30.83-46.74,68.62-46.74h0Z"/><path class="di" d="m500.01,761.86c37.09,0,67.34,20.57,67.34,45.79s-30.25,45.79-67.34,45.79-67.34-20.57-67.34-45.79,30.25-45.79,67.34-45.79h0Z"/><path class="di" d="m500.01,763.3c36.38,0,66.05,20.14,66.05,44.85s-29.67,44.84-66.05,44.84-66.05-20.14-66.05-44.84,29.67-44.85,66.05-44.85h0Z"/><path class="di" d="m500.01,764.74c35.67,0,64.76,19.72,64.76,43.9s-29.09,43.9-64.76,43.9-64.76-19.72-64.76-43.9,29.09-43.9,64.76-43.9h0Z"/><path class="di" d="m500.01,766.18c34.96,0,63.48,19.29,63.48,42.95s-28.52,42.95-63.48,42.95-63.48-19.29-63.48-42.95,28.52-42.95,63.48-42.95h0Z"/><path class="cz" d="m500.01,767.63c34.25,0,62.19,18.87,62.19,42s-27.94,42-62.19,42-62.19-18.87-62.19-42,27.94-42,62.19-42h0Z"/><path class="e" d="m500.01,769.07c33.55,0,60.91,18.44,60.91,41.05s-27.36,41.05-60.91,41.05-60.91-18.44-60.91-41.05,27.36-41.05,60.91-41.05h0Z"/><path class="e" d="m500,770.51c32.84,0,59.62,18.01,59.62,40.1s-26.78,40.1-59.62,40.1-59.62-18.01-59.62-40.1,26.78-40.1,59.62-40.1h0Z"/><path class="e" d="m500,771.95c32.13,0,58.34,17.59,58.34,39.15s-26.21,39.15-58.34,39.15-58.33-17.59-58.33-39.15,26.2-39.15,58.33-39.15h0Z"/><path class="ay" d="m500,773.4c31.42,0,57.05,17.16,57.05,38.21s-25.63,38.21-57.05,38.21-57.05-17.16-57.05-38.21,25.63-38.21,57.05-38.21h0Z"/><path class="ay" d="m500,774.84c30.71,0,55.76,16.74,55.76,37.26s-25.05,37.26-55.76,37.26-55.76-16.74-55.76-37.26,25.05-37.26,55.76-37.26h0Z"/><path class="da" d="m500,776.28c30.01,0,54.48,16.31,54.48,36.31s-24.47,36.31-54.48,36.31-54.48-16.31-54.48-36.31,24.47-36.31,54.48-36.31h0Z"/><path class="da" d="m500,777.72c29.3,0,53.19,15.88,53.19,35.36s-23.89,35.36-53.19,35.36-53.19-15.88-53.19-35.36,23.89-35.36,53.19-35.36h0Z"/><path class="bz" d="m500,779.17c28.59,0,51.91,15.46,51.91,34.41s-23.32,34.41-51.91,34.41-51.91-15.46-51.91-34.41,23.32-34.41,51.91-34.41h0Z"/><path class="av" d="m500,780.61c27.88,0,50.62,15.03,50.62,33.46s-22.74,33.46-50.62,33.46-50.62-15.03-50.62-33.46,22.74-33.46,50.62-33.46h0Z"/><path class="av" d="m500,782.05c27.17,0,49.33,14.61,49.33,32.52s-22.16,32.51-49.33,32.51-49.33-14.61-49.33-32.51,22.16-32.52,49.33-32.52h0Z"/><path class="dg" d="m500,783.5c26.46,0,48.05,14.18,48.05,31.57s-21.58,31.57-48.05,31.57-48.05-14.18-48.05-31.57,21.58-31.57,48.05-31.57h0Z"/><path class="dg" d="m500,784.94c25.76,0,46.76,13.75,46.76,30.62s-21.01,30.62-46.76,30.62-46.76-13.75-46.76-30.62,21.01-30.62,46.76-30.62h0Z"/><path class="dg" d="m500,786.38c25.05,0,45.48,13.33,45.48,29.67s-20.43,29.67-45.48,29.67-45.48-13.33-45.48-29.67,20.43-29.67,45.48-29.67h0Z"/><path class="t" d="m500,787.82c24.34,0,44.19,12.9,44.19,28.72s-19.85,28.72-44.19,28.72-44.19-12.9-44.19-28.72,19.85-28.72,44.19-28.72h0Z"/><path class="t" d="m500,789.27c23.63,0,42.9,12.48,42.9,27.77s-19.27,27.77-42.9,27.77-42.9-12.48-42.9-27.77,19.27-27.77,42.9-27.77h0Z"/><path class="t" d="m500,790.71c22.92,0,41.62,12.05,41.62,26.82s-18.7,26.82-41.62,26.82-41.62-12.05-41.62-26.82,18.7-26.82,41.62-26.82h0Z"/><path class="t" d="m500,792.15c22.21,0,40.33,11.62,40.33,25.88s-18.12,25.88-40.33,25.88-40.33-11.62-40.33-25.88,18.12-25.88,40.33-25.88h0Z"/><path class="cg" d="m500,793.59c21.51,0,39.05,11.2,39.05,24.93s-17.54,24.93-39.05,24.93-39.05-11.2-39.05-24.93,17.54-24.93,39.05-24.93h0Z"/><path class="at" d="m500,795.04c20.8,0,37.76,10.77,37.76,23.98s-16.96,23.98-37.76,23.98-37.76-10.77-37.76-23.98,16.96-23.98,37.76-23.98h0Z"/><path class="at" d="m500,796.48c20.09,0,36.48,10.34,36.48,23.03s-16.39,23.03-36.48,23.03-36.48-10.35-36.48-23.03,16.39-23.03,36.48-23.03h0Z"/><path class="cv" d="m500,797.92c19.38,0,35.19,9.92,35.19,22.08s-15.81,22.08-35.19,22.08-35.19-9.92-35.19-22.08,15.81-22.08,35.19-22.08h0Z"/><path class="cv" d="m500,799.36c18.67,0,33.9,9.49,33.9,21.13s-15.23,21.13-33.9,21.13-33.9-9.49-33.9-21.13,15.23-21.13,33.9-21.13h0Z"/><path class="u" d="m866.41,318.14l28.34,28.34-95.8,96.62c-9.55-9.55-18.66-18.67-28.34-28.34l95.79-96.62h0Zm-165.84,122.31c43.71,0,79.37,35.66,79.37,79.37s-35.66,79.37-79.37,79.37-79.37-35.66-79.37-79.37,35.66-79.37,79.37-79.37h0Zm0,33.14c24.79,0,45.02,20.77,45.02,46.23s-20.22,46.23-45.02,46.23-45.02-20.77-45.02-46.23,20.22-46.23,45.02-46.23h0Zm-417.25,53.34c-1.58,4.99-3.49,9.73-5.64,14.16-2.74,5.64-6.04,11.06-9.81,16.22-19.11,26.13-49.59,42.69-82.83,42.69h-.05c-28.58-.01-54.53-12.02-73.3-31.35-18.62-19.18-30.18-45.58-30.2-74.58v-.15c.01-29.03,11.59-55.47,30.24-74.66,18.75-19.3,44.66-31.29,73.22-31.32h.22c11.04.01,21.82,1.83,31.95,5.2,4.8,1.59,9.63,3.64,14.39,6.07v-.03c22.75,11.65,41.06,31.71,50.34,56.96h-43.68c-6.2-9.41-14.68-16.97-24.44-21.97l-.08-.08c-2.68-1.38-5.64-2.61-8.81-3.67-6.26-2.08-12.9-3.21-19.67-3.21h-.22c-17.57.02-33.55,7.42-45.14,19.35-11.74,12.08-19.04,28.85-19.04,47.35v.15c.02,18.47,7.29,35.2,19.01,47.27,11.61,11.95,27.62,19.38,45.22,19.38h.05c20.47,0,39.33-10.32,51.23-26.58,1.63-2.23,3.17-4.65,4.57-7.21h42.49Zm635.18-53.72v40.08h-98.39v-40.08h98.39Zm-225.92-178.55h40.08v98.39h-40.08v-98.39h0Zm-351.4,98.92v200.23h-39.68v-200.23h39.68Zm62.82,158.49c.1,5.68,2.17,9.98,6.23,12.98,4.06,2.95,9.53,4.45,16.42,4.45,10.8-.47,18.87-3.93,24.21-10.49,5.33-6.56,8.02-13.16,8.02-19.82v-18.64c-9.2,5.2-20.34,8.48-33.36,9.84-13.07,1.41-20.24,8.62-21.52,21.69h0Zm-37.88,2.77c.38-17.76,5.09-30.08,14.24-36.92,9.11-6.89,19.77-11.06,31.99-12.56,12.22-1.5,22.88-2.95,31.99-4.31,9.15-1.41,13.96-5.39,14.53-11.95.18-5.71-1.32-10.12-4.58-13.3-3.21-3.14-9.43-4.73-18.64-4.73-9.76,0-16.79,1.73-20.99,5.15-4.16,3.42-6.23,8.67-6.14,15.74h-36.75c-.09-15.93,4.96-28.4,15.19-37.39,10.23-9.04,26.47-13.63,48.68-13.82,18.69.09,33.59,3.65,44.68,10.64,11.13,7.02,16.8,16.77,17.08,29.33v92.1c-.09,3.47.43,6.42,1.6,8.86,1.13,2.39,3.25,4.35,6.27,5.81v6.32h-40.76c-1.66-2.11-2.88-4.78-3.59-8.01-.76-3.27-1.28-6.65-1.51-10.11-3.68,6.61-9.52,12.04-17.5,16.35-7.97,4.27-17.74,6.56-29.39,6.84-15.57-.19-27.17-4.03-34.86-11.52-7.69-7.5-11.56-18.32-11.56-32.51h0Zm202.09-38.7v77.68h-39.68v-146.31h36.76v26.47c3.58-7.91,8.82-15.08,15.71-21.46,6.84-6.32,17.83-9.69,32.98-10.07v39.96c-11.51-.75-21.9.66-31.09,4.17-9.24,3.51-14.11,13.4-14.67,29.56h0Z"/><path class="cr" d="m332.27,302.65c-138.91-30.18-172.79-88.15-87.08-184.09,123.68-138.41,385.94-138.41,509.62,0,85.7,95.94,51.83,153.91-87.08,184.09-108.61,23.6-226.85,23.6-335.46,0h0Z"/><path class="cr" d="m332.53,301.99c-138.69-30.09-172.51-87.89-86.94-183.54,123.49-137.99,385.34-137.99,508.82,0,85.57,95.65,51.75,153.45-86.94,183.54-108.44,23.53-226.49,23.53-334.94,0h0Z"/><path class="cr" d="m332.8,301.34c-138.48-30-172.24-87.62-86.81-182.98,123.3-137.58,384.73-137.58,508.03,0,85.43,95.36,51.67,152.99-86.81,182.98-108.27,23.46-226.14,23.46-334.41,0h0Z"/><path class="cr" d="m333.06,300.68c-138.26-29.91-171.97-87.36-86.67-182.43,123.1-137.16,384.13-137.16,507.23,0,85.3,95.07,51.59,152.52-86.67,182.43-108.1,23.39-225.78,23.39-333.88,0h0Z"/><path class="cr" d="m333.32,300.03c-138.04-29.82-171.7-87.09-86.54-181.88,122.91-136.75,383.52-136.75,506.43,0,85.17,94.79,51.51,152.06-86.54,181.88-107.93,23.32-225.43,23.32-333.36,0h0Z"/><path class="cr" d="m333.58,299.37c-137.82-29.73-171.43-86.83-86.4-181.33,122.71-136.33,382.92-136.33,505.63,0,85.03,94.5,51.43,151.6-86.4,181.33-107.76,23.25-225.07,23.25-332.83,0h0Z"/><path class="cr" d="m333.85,298.72c-137.61-29.63-171.16-86.56-86.26-180.77,122.52-135.92,382.31-135.92,504.83,0,84.9,94.21,51.34,151.14-86.26,180.77-107.59,23.18-224.72,23.18-332.31,0h0Z"/><path class="cr" d="m334.11,298.07c-137.39-29.54-170.89-86.3-86.13-180.22,122.33-135.5,381.7-135.5,504.03,0,84.76,93.92,51.26,150.68-86.13,180.22-107.42,23.1-224.36,23.1-331.78,0h0Z"/><path class="cr" d="m334.37,297.41c-137.17-29.45-170.62-86.04-85.99-179.67,122.13-135.09,381.1-135.09,503.23,0,84.63,93.64,51.18,150.22-85.99,179.67-107.25,23.03-224.01,23.03-331.25,0h0Z"/><path class="cr" d="m334.64,296.76c-136.95-29.36-170.35-85.77-85.85-179.12,121.94-134.67,380.49-134.67,502.43,0,84.49,93.35,51.1,149.76-85.85,179.12-107.08,22.96-223.65,22.96-330.73,0h0Z"/><path class="cr" d="m334.9,296.1c-136.73-29.27-170.08-85.51-85.72-178.57,121.74-134.26,379.89-134.26,501.63,0,84.36,93.06,51.02,149.29-85.72,178.57-106.91,22.89-223.29,22.89-330.2,0h0Z"/><path class="cr" d="m335.16,295.45c-136.52-29.18-169.8-85.24-85.58-178.02,121.55-133.84,379.28-133.84,500.83,0,84.23,92.77,50.94,148.83-85.58,178.02-106.74,22.82-222.94,22.82-329.68,0h0Z"/><path class="cr" d="m335.43,294.79c-136.3-29.09-169.53-84.98-85.44-177.46,121.36-133.43,378.68-133.43,500.04,0,84.09,92.48,50.86,148.37-85.44,177.46-106.57,22.75-222.58,22.75-329.15,0h0Z"/><path class="cr" d="m335.69,294.14c-136.08-29-169.26-84.71-85.31-176.91,121.16-133.01,378.07-133.01,499.24,0,83.96,92.2,50.77,147.91-85.31,176.91-106.4,22.68-222.23,22.68-328.62,0h0Z"/><path class="cr" d="m335.95,293.48c-135.86-28.91-168.99-84.45-85.17-176.36,120.97-132.6,377.47-132.6,498.44,0,83.82,91.91,50.69,147.45-85.17,176.36-106.23,22.61-221.87,22.61-328.1,0h0Z"/><path class="cr" d="m336.21,292.83c-135.65-28.82-168.72-84.19-85.03-175.81,120.77-132.18,376.86-132.18,497.64,0,83.69,91.62,50.61,146.99-85.03,175.81-106.06,22.54-221.51,22.54-327.57,0h0Z"/><path class="cr" d="m336.48,292.18c-135.43-28.73-168.45-83.92-84.9-175.25,120.58-131.77,376.26-131.77,496.84,0,83.55,91.33,50.53,146.52-84.9,175.25-105.89,22.47-221.16,22.47-327.05,0h0Z"/><path class="cr" d="m336.74,291.52c-135.21-28.64-168.18-83.66-84.76-174.7,120.39-131.35,375.65-131.35,496.04,0,83.42,91.05,50.45,146.06-84.76,174.7-105.72,22.4-220.8,22.4-326.52,0h0Z"/><path class="cr" d="m337,290.87c-134.99-28.55-167.91-83.39-84.62-174.15,120.19-130.94,375.05-130.94,495.24,0,83.28,90.76,50.37,145.6-84.62,174.15-105.55,22.33-220.45,22.33-325.99,0h0Z"/><path class="cr" d="m337.27,290.21c-134.77-28.46-167.64-83.13-84.49-173.6,120-130.52,374.44-130.52,494.44,0,83.15,90.47,50.29,145.14-84.49,173.6-105.38,22.26-220.09,22.26-325.47,0h0Z"/><path class="cr" d="m337.53,289.56c-134.56-28.37-167.37-82.86-84.35-173.05,119.8-130.11,373.84-130.11,493.64,0,83.02,90.18,50.21,144.68-84.35,173.05-105.2,22.18-219.74,22.18-324.94,0h0Z"/><path class="cr" d="m337.79,288.91c-134.34-28.28-167.1-82.6-84.21-172.49,119.61-129.69,373.23-129.69,492.84,0,82.88,89.9,50.12,144.22-84.21,172.49-105.03,22.11-219.38,22.11-324.42,0h0Z"/><path class="cr" d="m338.06,288.25c-134.12-28.19-166.82-82.34-84.08-171.94,119.42-129.28,372.63-129.28,492.04,0,82.75,89.61,50.04,143.76-84.08,171.94-104.86,22.04-219.02,22.04-323.89,0h0Z"/><path class="cr" d="m338.32,287.6c-133.9-28.1-166.55-82.07-83.94-171.39,119.22-128.86,372.02-128.86,491.25,0,82.61,89.32,49.96,143.29-83.94,171.39-104.69,21.97-218.67,21.97-323.36,0h0Z"/><path class="cr" d="m338.58,286.94c-133.69-28.01-166.28-81.81-83.8-170.84,119.03-128.45,371.42-128.45,490.45,0,82.48,89.03,49.88,142.83-83.8,170.84-104.52,21.9-218.31,21.9-322.84,0h0Z"/><path class="cr" d="m338.84,286.29c-133.47-27.92-166.01-81.54-83.67-170.29,118.83-128.03,370.81-128.03,489.65,0,82.34,88.74,49.8,142.37-83.67,170.29-104.35,21.83-217.96,21.83-322.31,0h0Z"/><path class="cr" d="m339.11,285.63c-133.25-27.83-165.74-81.28-83.53-169.73,118.64-127.62,370.21-127.62,488.85,0,82.21,88.46,49.72,141.91-83.53,169.73-104.18,21.76-217.6,21.76-321.79,0h0Z"/><path class="cr" d="m339.37,284.98c-133.03-27.73-165.47-81.01-83.39-169.18,118.45-127.2,369.6-127.2,488.05,0,82.08,88.17,49.64,141.45-83.39,169.18-104.01,21.69-217.25,21.69-321.26,0h0Z"/><path class="cr" d="m339.63,284.33c-132.81-27.64-165.2-80.75-83.26-168.63,118.25-126.79,369-126.79,487.25,0,81.94,87.88,49.56,140.99-83.26,168.63-103.84,21.62-216.89,21.62-320.73,0h0Z"/><path class="cr" d="m339.9,283.67c-132.6-27.55-164.93-80.48-83.12-168.08,118.06-126.37,368.39-126.37,486.45,0,81.81,87.59,49.47,140.52-83.12,168.08-103.67,21.55-216.53,21.55-320.21,0h0Z"/><path class="cr" d="m340.16,283.02c-132.38-27.46-164.66-80.22-82.98-167.53,117.87-125.96,367.79-125.96,485.65,0,81.67,87.31,49.39,140.06-82.98,167.53-103.5,21.48-216.18,21.48-319.68,0h0Z"/><path class="cr" d="m340.42,282.36c-132.16-27.37-164.39-79.96-82.85-166.97,117.67-125.54,367.18-125.54,484.85,0,81.54,87.02,49.31,139.6-82.85,166.97-103.33,21.41-215.82,21.41-319.16,0h0Z"/><path class="cr" d="m340.69,281.71c-131.94-27.28-164.12-79.69-82.71-166.42,117.48-125.13,366.58-125.13,484.05,0,81.4,86.73,49.23,139.14-82.71,166.42-103.16,21.34-215.47,21.34-318.63,0h0Z"/><path class="cr" d="m340.95,281.05c-131.72-27.19-163.85-79.43-82.58-165.87,117.28-124.71,365.97-124.71,483.25,0,81.27,86.44,49.15,138.68-82.58,165.87-102.99,21.26-215.11,21.26-318.1,0h0Z"/><path class="cr" d="m341.21,280.4c-131.51-27.1-163.57-79.16-82.44-165.32,117.09-124.3,365.37-124.3,482.46,0,81.14,86.16,49.07,138.22-82.44,165.32-102.82,21.19-214.76,21.19-317.58,0h0Z"/><path class="cr" d="m341.47,279.74c-131.29-27.01-163.3-78.9-82.3-164.77,116.9-123.88,364.76-123.88,481.66,0,81,85.87,48.99,137.76-82.3,164.77-102.65,21.12-214.4,21.12-317.05,0h0Z"/><path class="cr" d="m341.74,279.09c-131.07-26.92-163.03-78.63-82.17-164.21,116.7-123.47,364.16-123.47,480.86,0,80.87,85.58,48.91,137.29-82.17,164.21-102.48,21.05-214.04,21.05-316.53,0h0Z"/><path class="cr" d="m342,278.44c-130.85-26.83-162.76-78.37-82.03-163.66,116.51-123.05,363.55-123.05,480.06,0,80.73,85.29,48.82,136.83-82.03,163.66-102.31,20.98-213.69,20.98-316,0h0Z"/><path class="cr" d="m342.26,277.78c-130.64-26.74-162.49-78.11-81.89-163.11,116.31-122.64,362.95-122.64,479.26,0,80.6,85,48.74,136.37-81.89,163.11-102.14,20.91-213.33,20.91-315.47,0h0Z"/><path class="cr" d="m342.53,277.13c-130.42-26.65-162.22-77.84-81.76-162.56,116.12-122.22,362.34-122.22,478.46,0,80.46,84.72,48.66,135.91-81.76,162.56-101.97,20.84-212.98,20.84-314.95,0h0Z"/><path class="cr" d="m342.79,276.47c-130.2-26.56-161.95-77.58-81.62-162.01,115.93-121.81,361.73-121.81,477.66,0,80.33,84.43,48.58,135.45-81.62,162.01-101.8,20.77-212.62,20.77-314.42,0h0Z"/><path class="z" d="m343.05,275.82c-129.98-26.47-161.68-77.31-81.48-161.45,115.73-121.39,361.13-121.39,476.86,0,80.19,84.14,48.5,134.99-81.48,161.45-101.63,20.7-212.27,20.7-313.9,0h0Z"/><path class="z" d="m343.32,275.16c-129.77-26.38-161.41-77.05-81.35-160.9,115.54-120.98,360.52-120.98,476.06,0,80.06,83.85,48.42,134.52-81.35,160.9-101.46,20.63-211.91,20.63-313.37,0h0Z"/><path class="z" d="m343.58,274.51c-129.55-26.29-161.14-76.78-81.21-160.35,115.34-120.56,359.92-120.56,475.26,0,79.93,83.57,48.34,134.06-81.21,160.35-101.29,20.56-211.56,20.56-312.84,0h0Z"/><path class="z" d="m343.84,273.86c-129.33-26.2-160.86-76.52-81.07-159.8,115.15-120.15,359.31-120.15,474.46,0,79.79,83.28,48.26,133.6-81.07,159.8-101.12,20.49-211.2,20.49-312.32,0h0Z"/><path class="z" d="m344.1,273.2c-129.11-26.11-160.59-76.26-80.94-159.25,114.96-119.73,358.71-119.73,473.67,0,79.66,82.99,48.17,133.14-80.94,159.25-100.95,20.42-210.84,20.42-311.79,0h0Z"/><path class="z" d="m344.37,272.55c-128.89-26.02-160.32-75.99-80.8-158.69,114.76-119.32,358.1-119.32,472.87,0,79.52,82.7,48.09,132.68-80.8,158.69-100.78,20.34-210.49,20.34-311.27,0h0Z"/><path class="z" d="m344.63,271.89c-128.68-25.92-160.05-75.73-80.66-158.14,114.57-118.9,357.5-118.9,472.07,0,79.39,82.42,48.01,132.22-80.66,158.14-100.61,20.27-210.13,20.27-310.74,0h0Z"/><path class="z" d="m344.89,271.24c-128.46-25.83-159.78-75.46-80.53-157.59,114.37-118.49,356.89-118.49,471.27,0,79.25,82.13,47.93,131.76-80.53,157.59-100.44,20.2-209.78,20.2-310.21,0h0Z"/><path class="z" d="m345.16,270.59c-128.24-25.74-159.51-75.2-80.39-157.04,114.18-118.07,356.29-118.07,470.47,0,79.12,81.84,47.85,131.29-80.39,157.04-100.27,20.13-209.42,20.13-309.69,0h0Z"/><path class="z" d="m345.42,269.93c-128.02-25.65-159.24-74.93-80.25-156.49,113.99-117.66,355.68-117.66,469.67,0,78.98,81.55,47.77,130.83-80.25,156.49-100.1,20.06-209.07,20.06-309.16,0h0Z"/><path class="ah" d="m345.68,269.28c-127.8-25.56-158.97-74.67-80.12-155.93,113.79-117.24,355.08-117.24,468.87,0,78.85,81.26,47.69,130.37-80.12,155.93-99.93,19.99-208.71,19.99-308.64,0h0Z"/><path class="ah" d="m345.95,268.62c-127.59-25.47-158.7-74.4-79.98-155.38,113.6-116.83,354.47-116.83,468.07,0,78.72,80.98,47.6,129.91-79.98,155.38-99.76,19.92-208.35,19.92-308.11,0h0Z"/><path class="ah" d="m346.21,267.97c-127.37-25.38-158.43-74.14-79.84-154.83,113.4-116.41,353.87-116.41,467.27,0,78.58,80.69,47.52,129.45-79.84,154.83-99.59,19.85-208,19.85-307.58,0h0Z"/><path class="ah" d="m346.47,267.31c-127.15-25.29-158.16-73.88-79.71-154.28,113.21-116,353.26-116,466.47,0,78.45,80.4,47.44,128.99-79.71,154.28-99.42,19.78-207.64,19.78-307.06,0h0Z"/><path class="ca" d="m346.73,266.66c-126.93-25.2-157.88-73.61-79.57-153.73,113.02-115.58,352.66-115.58,465.67,0,78.31,80.11,47.36,128.52-79.57,153.73-99.24,19.71-207.29,19.71-306.53,0h0Z"/><path class="q" d="m347,266c-126.72-25.11-157.61-73.35-79.44-153.17,112.82-115.17,352.05-115.17,464.88,0,78.18,79.83,47.28,128.06-79.44,153.17-99.07,19.64-206.93,19.64-306.01,0h0Z"/><path class="q" d="m347.26,265.35c-126.5-25.02-157.34-73.08-79.3-152.62,112.63-114.75,351.45-114.75,464.08,0,78.04,79.54,47.2,127.6-79.3,152.62-98.9,19.57-206.58,19.57-305.48,0h0Z"/><path class="q" d="m347.52,264.7c-126.28-24.93-157.07-72.82-79.16-152.07C380.8-1.71,619.2-1.71,731.64,112.63c77.91,79.25,47.12,127.14-79.16,152.07-98.73,19.5-206.22,19.5-304.95,0h0Z"/><path class="q" d="m347.79,264.04c-126.06-24.84-156.8-72.55-79.03-151.52C381-1.4,619-1.4,731.24,112.52c77.78,78.96,47.04,126.68-79.03,151.52-98.56,19.42-205.86,19.42-304.43,0h0Z"/><path class="q" d="m348.05,263.39c-125.84-24.75-156.53-72.29-78.89-150.97C381.21-1.09,618.79-1.09,730.84,112.42c77.64,78.68,46.95,126.22-78.89,150.97-98.39,19.35-205.51,19.35-303.9,0h0Z"/><path class="q" d="m348.31,262.73c-125.63-24.66-156.26-72.03-78.75-150.41C381.41-.77,618.59-.77,730.44,112.32c77.51,78.39,46.87,125.76-78.75,150.41-98.22,19.28-205.15,19.28-303.38,0h0Z"/><path class="q" d="m348.58,262.08c-125.41-24.57-155.99-71.76-78.62-149.86C381.62-.46,618.38-.46,730.04,112.22c77.37,78.1,46.79,125.29-78.62,149.86-98.05,19.21-204.8,19.21-302.85,0h0Z"/><path class="cs" d="m348.84,261.42c-125.19-24.48-155.72-71.5-78.48-149.31C381.82-.15,618.18-.15,729.64,112.11c77.24,77.81,46.71,124.83-78.48,149.31-97.88,19.14-204.44,19.14-302.32,0h0Z"/><path class="cs" d="m349.1,260.77c-124.97-24.39-155.45-71.23-78.34-148.76C382.03.17,617.97.17,729.24,112.01c77.1,77.52,46.63,124.37-78.34,148.76-97.71,19.07-204.09,19.07-301.8,0h0Z"/><path class="cs" d="m349.36,260.12c-124.75-24.3-155.17-70.97-78.21-148.21C382.24.48,617.76.48,728.84,111.91c76.97,77.24,46.55,123.91-78.21,148.21-97.54,19-203.73,19-301.27,0h0Z"/><path class="ba" d="m349.63,259.46c-124.54-24.21-154.9-70.7-78.07-147.65C382.44.79,617.56.79,728.44,111.81c76.83,76.95,46.47,123.45-78.07,147.65-97.37,18.93-203.37,18.93-300.75,0h0Z"/><path class="ba" d="m349.89,258.81c-124.32-24.11-154.63-70.44-77.93-147.1C382.65,1.1,617.35,1.1,728.04,111.71c76.7,76.66,46.39,122.99-77.93,147.1-97.2,18.86-203.02,18.86-300.22,0h0Z"/><path class="ba" d="m350.15,258.15c-124.1-24.02-154.36-70.18-77.8-146.55C382.85,1.42,617.15,1.42,727.64,111.6c76.57,76.37,46.3,122.53-77.8,146.55-97.03,18.79-202.66,18.79-299.69,0h0Z"/><path class="ba" d="m350.42,257.5c-123.88-23.93-154.09-69.91-77.66-146C383.06,1.73,616.94,1.73,727.24,111.5c76.43,76.09,46.22,122.06-77.66,146-96.86,18.72-202.31,18.72-299.17,0h0Z"/><path class="ch" d="m350.68,256.84c-123.67-23.84-153.82-69.65-77.52-145.45,110.11-109.36,343.58-109.36,453.69,0,76.3,75.8,46.14,121.6-77.52,145.45-96.69,18.65-201.95,18.65-298.64,0h0Z"/><path class="ch" d="m350.94,256.19c-123.45-23.75-153.55-69.38-77.39-144.89,109.91-108.94,342.98-108.94,452.89,0,76.16,75.51,46.06,121.14-77.39,144.89-96.52,18.58-201.6,18.58-298.12,0h0Z"/><path class="ch" d="m351.21,255.54c-123.23-23.66-153.28-69.12-77.25-144.34,109.72-108.53,342.37-108.53,452.09,0,76.03,75.22,45.98,120.68-77.25,144.34-96.35,18.5-201.24,18.5-297.59,0h0Z"/><path class="as" d="m351.47,254.88c-123.01-23.57-153.01-68.85-77.11-143.79,109.53-108.11,341.77-108.11,451.29,0,75.89,74.94,45.9,120.22-77.11,143.79-96.18,18.43-200.88,18.43-297.06,0h0Z"/><path class="as" d="m351.73,254.23c-122.79-23.48-152.74-68.59-76.98-143.24,109.33-107.7,341.16-107.7,450.49,0,75.76,74.65,45.82,119.76-76.98,143.24-96.01,18.36-200.53,18.36-296.54,0h0Z"/><path class="as" d="m351.99,253.57c-122.58-23.39-152.47-68.33-76.84-142.69,109.14-107.28,340.55-107.28,449.69,0,75.63,74.36,45.74,119.29-76.84,142.69-95.84,18.29-200.17,18.29-296.01,0h0Z"/><path class="cm" d="m352.26,252.92c-122.36-23.3-152.2-68.06-76.7-142.13,108.94-106.87,339.95-106.87,448.89,0,75.49,74.07,45.65,118.83-76.7,142.13-95.67,18.22-199.82,18.22-295.49,0h0Z"/><path class="cm" d="m352.52,252.26c-122.14-23.21-151.92-67.8-76.57-141.58,108.75-106.45,339.34-106.45,448.1,0,75.36,73.79,45.57,118.37-76.57,141.58-95.5,18.15-199.46,18.15-294.96,0h0Z"/><path class="cm" d="m352.78,251.61c-121.92-23.12-151.65-67.53-76.43-141.03,108.56-106.04,338.74-106.04,447.3,0,75.22,73.5,45.49,117.91-76.43,141.03-95.33,18.08-199.11,18.08-294.43,0h0Z"/><path class="cm" d="m353.05,250.96c-121.71-23.03-151.38-67.27-76.3-140.48,108.36-105.62,338.13-105.62,446.5,0,75.09,73.21,45.41,117.45-76.3,140.48-95.16,18.01-198.75,18.01-293.91,0h0Z"/><path class="ci" d="m353.31,250.3c-121.49-22.94-151.11-67-76.16-139.93,108.17-105.21,337.53-105.21,445.7,0,74.95,72.92,45.33,116.99-76.16,139.93-94.99,17.94-198.39,17.94-293.38,0h0Z"/><path class="bx" d="m353.57,249.65c-121.27-22.85-150.84-66.74-76.02-139.37,107.97-104.79,336.92-104.79,444.9,0,74.82,72.63,45.25,116.53-76.02,139.37-94.82,17.87-198.04,17.87-292.86,0h0Z"/><path class="bx" d="m353.84,248.99c-121.05-22.76-150.57-66.47-75.89-138.82,107.78-104.38,336.32-104.38,444.1,0,74.68,72.35,45.17,116.06-75.89,138.82-94.65,17.8-197.68,17.8-292.33,0h0Z"/><path class="bx" d="m354.1,248.34c-120.83-22.67-150.3-66.21-75.75-138.27,107.59-103.96,335.71-103.96,443.3,0,74.55,72.06,45.09,115.6-75.75,138.27-94.48,17.73-197.33,17.73-291.8,0h0Z"/><path class="bx" d="m354.36,247.68c-120.62-22.58-150.03-65.95-75.61-137.72,107.39-103.55,335.11-103.55,442.5,0,74.42,71.77,45,115.14-75.61,137.72-94.31,17.66-196.97,17.66-291.28,0h0Z"/><path class="j" d="m354.62,247.03c-120.4-22.49-149.76-65.68-75.48-137.17,107.2-103.13,334.5-103.13,441.7,0,74.28,71.48,44.92,114.68-75.48,137.17-94.14,17.58-196.62,17.58-290.75,0h0Z"/><path class="h" d="m354.89,246.38c-120.18-22.4-149.49-65.42-75.34-136.61,107-102.72,333.9-102.72,440.9,0,74.15,71.2,44.84,114.22-75.34,136.61-93.97,17.51-196.26,17.51-290.23,0h0Z"/><path class="h" d="m355.15,245.72c-119.96-22.3-149.22-65.15-75.2-136.06,106.81-102.3,333.29-102.3,440.1,0,74.01,70.91,44.76,113.76-75.2,136.06-93.8,17.44-195.9,17.44-289.7,0h0Z"/><path class="aw" d="m355.41,245.07c-119.74-22.21-148.94-64.89-75.07-135.51,106.62-101.89,332.69-101.89,439.31,0,73.88,70.62,44.68,113.29-75.07,135.51-93.62,17.37-195.55,17.37-289.17,0h0Z"/><path class="aw" d="m355.68,244.41c-119.53-22.12-148.67-64.62-74.93-134.96,106.42-101.47,332.08-101.47,438.51,0,73.74,70.33,44.6,112.83-74.93,134.96-93.45,17.3-195.19,17.3-288.65,0h0Z"/><path class="aw" d="m355.94,243.76c-119.31-22.03-148.4-64.36-74.79-134.41,106.23-101.06,331.48-101.06,437.71,0,73.61,70.04,44.52,112.37-74.79,134.41-93.28,17.23-194.84,17.23-288.12,0h0Z"/><path class="bm" d="m356.2,243.1c-119.09-21.94-148.13-64.1-74.66-133.85,106.04-100.64,330.87-100.64,436.91,0,73.47,69.76,44.44,111.91-74.66,133.85-93.11,17.16-194.48,17.16-287.6,0h0Z"/><path class="br" d="m356.47,242.45c-118.87-21.85-147.86-63.83-74.52-133.3,105.84-100.22,330.27-100.22,436.11,0,73.34,69.47,44.35,111.45-74.52,133.3-92.94,17.09-194.13,17.09-287.07,0h0Z"/><path class="br" d="m356.73,241.8c-118.66-21.76-147.59-63.57-74.38-132.75,105.65-99.81,329.66-99.81,435.31,0,73.21,69.18,44.27,110.99-74.38,132.75-92.77,17.02-193.77,17.02-286.54,0h0Z"/><path class="br" d="m356.99,241.14c-118.44-21.67-147.32-63.3-74.25-132.2,105.45-99.4,329.06-99.4,434.51,0,73.07,68.89,44.19,110.53-74.25,132.2-92.6,16.95-193.41,16.95-286.02,0h0Z"/><path class="aq" d="m357.25,240.49c-118.22-21.58-147.05-63.04-74.11-131.65,105.26-98.98,328.45-98.98,433.71,0,72.94,68.61,44.11,110.06-74.11,131.65-92.43,16.88-193.06,16.88-285.49,0h0Z"/><path class="aq" d="m357.52,239.83c-118-21.49-146.78-62.77-73.97-131.09,105.07-98.56,327.85-98.56,432.91,0,72.8,68.32,44.03,109.6-73.97,131.09-92.26,16.81-192.7,16.81-284.97,0h0Z"/><path class="n" d="m357.78,239.18c-117.79-21.4-146.51-62.51-73.84-130.54,104.87-98.15,327.24-98.15,432.11,0,72.67,68.03,43.95,109.14-73.84,130.54-92.09,16.74-192.35,16.74-284.44,0h0Z"/><path class="n" d="m358.04,238.52c-117.57-21.31-146.23-62.25-73.7-129.99,104.68-97.74,326.64-97.74,431.31,0,72.53,67.74,43.87,108.68-73.7,129.99-91.92,16.66-191.99,16.66-283.91,0h0Z"/><path class="bg" d="m358.31,237.87c-117.35-21.22-145.96-61.98-73.56-129.44,104.48-97.32,326.03-97.32,430.51,0,72.4,67.46,43.79,108.22-73.56,129.44-91.75,16.59-191.64,16.59-283.39,0h0Z"/><path class="bg" d="m358.57,237.22c-117.13-21.13-145.69-61.72-73.43-128.88,104.29-96.91,325.43-96.91,429.72,0,72.27,67.17,43.7,107.76-73.43,128.88-91.58,16.52-191.28,16.52-282.86,0h0Z"/><path class="i" d="m358.83,236.56c-116.91-21.04-145.42-61.45-73.29-128.33,104.1-96.49,324.82-96.49,428.92,0,72.13,66.88,43.62,107.29-73.29,128.33-91.41,16.45-190.93,16.45-282.34,0h0Z"/><path class="i" d="m359.1,235.91c-116.7-20.95-145.15-61.19-73.15-127.78,103.9-96.07,324.22-96.07,428.12,0,72,66.59,43.54,106.83-73.15,127.78-91.24,16.38-190.57,16.38-281.81,0h0Z"/><path class="i" d="m359.36,235.25c-116.48-20.86-144.88-60.92-73.02-127.23,103.71-95.66,323.61-95.66,427.32,0,71.86,66.3,43.46,106.37-73.02,127.23-91.07,16.31-190.21,16.31-281.28,0h0Z"/><path class="bt" d="m359.62,234.6c-116.26-20.77-144.61-60.66-72.88-126.68,103.51-95.24,323.01-95.24,426.52,0,71.73,66.02,43.38,105.91-72.88,126.68-90.9,16.24-189.86,16.24-280.76,0h0Z"/><path class="bt" d="m359.88,233.94c-116.04-20.68-144.34-60.39-72.74-126.12,103.32-94.83,322.4-94.83,425.72,0,71.59,65.73,43.3,105.45-72.74,126.12-90.73,16.17-189.5,16.17-280.23,0h0Z"/><path class="cb" d="m360.15,233.29c-115.82-20.59-144.07-60.13-72.61-125.57,103.13-94.41,321.8-94.41,424.92,0,71.46,65.44,43.22,104.99-72.61,125.57-90.56,16.1-189.15,16.1-279.71,0h0Z"/><path class="al" d="m360.41,232.63c-115.61-20.5-143.8-59.87-72.47-125.02,102.93-94,321.19-94,424.12,0,71.32,65.15,43.14,104.53-72.47,125.02-90.39,16.03-188.79,16.03-279.18,0h0Z"/><path class="cj" d="m360.67,231.98c-115.39-20.4-143.53-59.6-72.34-124.47,102.74-93.58,320.59-93.58,423.32,0,71.19,64.87,43.05,104.06-72.34,124.47-90.22,15.96-188.44,15.96-278.65,0h0Z"/><path class="cj" d="m360.94,231.33c-115.17-20.31-143.25-59.34-72.2-123.92,102.54-93.17,319.98-93.17,422.52,0,71.06,64.58,42.97,103.6-72.2,123.92-90.05,15.89-188.08,15.89-278.13,0h0Z"/><path class="cj" d="m361.2,230.67c-114.95-20.22-142.98-59.07-72.06-123.36,102.35-92.75,319.37-92.75,421.73,0,70.92,64.29,42.89,103.14-72.06,123.36-89.88,15.82-187.72,15.82-277.6,0h0Z"/><path class="d" d="m361.46,230.02c-114.74-20.13-142.71-58.81-71.93-122.81,102.16-92.34,318.77-92.34,420.93,0,70.79,64,42.81,102.68-71.93,122.81-89.71,15.74-187.37,15.74-277.08,0h0Z"/><path class="ct" d="m361.73,229.36c-114.52-20.04-142.44-58.54-71.79-122.26,101.96-91.92,318.16-91.92,420.13,0,70.65,63.72,42.73,102.22-71.79,122.26-89.54,15.67-187.01,15.67-276.55,0h0Z"/><path class="ct" d="m361.99,228.71c-114.3-19.95-142.17-58.28-71.65-121.71,101.77-91.51,317.56-91.51,419.33,0,70.52,63.43,42.65,101.76-71.65,121.71-89.37,15.6-186.66,15.6-276.02,0h0Z"/><path class="au" d="m362.25,228.05c-114.08-19.86-141.9-58.02-71.52-121.16,101.58-91.09,316.95-91.09,418.53,0,70.38,63.14,42.57,101.3-71.52,121.16-89.2,15.53-186.3,15.53-275.5,0h0Z"/><path class="ae" d="m362.51,227.4c-113.86-19.77-141.63-57.75-71.38-120.6,101.38-90.68,316.35-90.68,417.73,0,70.25,62.85,42.48,100.83-71.38,120.6-89.03,15.46-185.94,15.46-274.97,0h0Z"/><path class="bw" d="m362.78,226.75c-113.65-19.68-141.36-57.49-71.24-120.05,101.19-90.26,315.74-90.26,416.93,0,70.12,62.57,42.4,100.37-71.24,120.05-88.86,15.39-185.59,15.39-274.45,0h0Z"/><path class="bw" d="m363.04,226.09c-113.43-19.59-141.09-57.22-71.11-119.5,100.99-89.85,315.14-89.85,416.13,0,69.98,62.28,42.32,99.91-71.11,119.5-88.69,15.32-185.23,15.32-273.92,0h0Z"/><path class="x" d="m363.3,225.44c-113.21-19.5-140.82-56.96-70.97-118.95,100.8-89.43,314.53-89.43,415.33,0,69.85,61.99,42.24,99.45-70.97,118.95-88.52,15.25-184.88,15.25-273.39,0h0Z"/><path class="bq" d="m363.57,224.78c-112.99-19.41-140.55-56.69-70.83-118.4,100.61-89.02,313.93-89.02,414.53,0,69.71,61.7,42.16,98.99-70.83,118.4-88.35,15.18-184.52,15.18-272.87,0h0Z"/><path class="bq" d="m363.83,224.13c-112.78-19.32-140.27-56.43-70.7-117.84,100.41-88.6,313.32-88.6,413.73,0,69.58,61.41,42.08,98.53-70.7,117.84-88.17,15.11-184.17,15.11-272.34,0h0Z"/><path class="ce" d="m364.09,223.47c-112.56-19.23-140-56.17-70.56-117.29,100.22-88.19,312.72-88.19,412.94,0,69.44,61.13,42,98.06-70.56,117.29-88.01,15.04-183.81,15.04-271.82,0h0Z"/><path class="cw" d="m364.36,222.82c-112.34-19.14-139.73-55.9-70.42-116.74,100.02-87.77,312.11-87.77,412.14,0,69.31,60.84,41.92,97.6-70.42,116.74-87.84,14.97-183.46,14.97-271.29,0h0Z"/><path class="bd" d="m364.62,222.17c-112.12-19.05-139.46-55.64-70.29-116.19,99.83-87.36,311.51-87.36,411.34,0,69.17,60.55,41.83,97.14-70.29,116.19-87.66,14.89-183.1,14.89-270.76,0h0Z"/><path class="bd" d="m364.88,221.51c-111.9-18.96-139.19-55.37-70.15-115.64,99.64-86.94,310.9-86.94,410.54,0,69.04,60.26,41.75,96.68-70.15,115.64-87.49,14.82-182.74,14.82-270.24,0h0Z"/><path class="af" d="m365.14,220.86c-111.69-18.87-138.92-55.11-70.01-115.08,99.44-86.53,310.3-86.53,409.74,0,68.91,59.98,41.67,96.22-70.01,115.08-87.32,14.75-182.39,14.75-269.71,0h0Z"/><path class="af" d="m365.41,220.2c-111.47-18.78-138.65-54.84-69.88-114.53,99.25-86.11,309.69-86.11,408.94,0,68.77,59.69,41.59,95.76-69.88,114.53-87.15,14.68-182.03,14.68-269.19,0h0Z"/><path class="dh" d="m365.67,219.55c-111.25-18.69-138.38-54.58-69.74-113.98,99.05-85.7,309.09-85.7,408.14,0,68.64,59.4,41.51,95.29-69.74,113.98-86.98,14.61-181.68,14.61-268.66,0h0Z"/><path class="dh" d="m365.93,218.89c-111.03-18.59-138.11-54.32-69.6-113.43,98.86-85.28,308.48-85.28,407.34,0,68.5,59.11,41.43,94.83-69.6,113.43-86.81,14.54-181.32,14.54-268.13,0h0Z"/><path class="k" d="m366.2,218.24c-110.82-18.5-137.84-54.05-69.47-112.88,98.67-84.87,307.88-84.87,406.54,0,68.37,58.83,41.35,94.37-69.47,112.88-86.64,14.47-180.97,14.47-267.61,0h0Z"/><path class="ck" d="m366.46,217.59c-110.6-18.41-137.57-53.79-69.33-112.32,98.47-84.45,307.27-84.45,405.74,0,68.23,58.54,41.27,93.91-69.33,112.32-86.47,14.4-180.61,14.4-267.08,0h0Z"/><path class="db" d="m366.72,216.93c-110.38-18.32-137.29-53.52-69.19-111.77,98.28-84.04,306.67-84.04,404.95,0,68.1,58.25,41.18,93.45-69.19,111.77-86.3,14.33-180.25,14.33-266.56,0h0Z"/><path class="db" d="m366.99,216.28c-110.16-18.23-137.02-53.26-69.06-111.22,98.08-83.62,306.06-83.62,404.15,0,67.97,57.96,41.1,92.99-69.06,111.22-86.13,14.26-179.9,14.26-266.03,0h0Z"/><path class="aj" d="m367.25,215.62c-109.94-18.14-136.75-52.99-68.92-110.67,97.89-83.21,305.46-83.21,403.35,0,67.83,57.67,41.02,92.53-68.92,110.67-85.96,14.19-179.54,14.19-265.5,0h0Z"/><path class="by" d="m367.51,214.97c-109.73-18.05-136.48-52.73-68.78-110.12,97.7-82.79,304.85-82.79,402.55,0,67.7,57.39,40.94,92.06-68.78,110.12-85.79,14.12-179.19,14.12-264.98,0h0Z"/><path class="by" d="m367.77,214.31c-109.51-17.96-136.21-52.47-68.65-109.56,97.5-82.38,304.25-82.38,401.75,0,67.56,57.1,40.86,91.6-68.65,109.56-85.62,14.05-178.83,14.05-264.45,0h0Z"/><path class="ad" d="m368.04,213.66c-109.29-17.87-135.94-52.2-68.51-109.01,97.31-81.96,303.64-81.96,400.95,0,67.43,56.81,40.78,91.14-68.51,109.01-85.45,13.98-178.48,13.98-263.93,0h0Z"/><path class="ad" d="m368.3,213.01c-109.07-17.78-135.67-51.94-68.38-108.46,97.11-81.55,303.04-81.55,400.15,0,67.29,56.52,40.7,90.68-68.38,108.46-85.28,13.9-178.12,13.9-263.4,0h0Z"/><path class="b" d="m368.56,212.35c-108.85-17.69-135.4-51.67-68.24-107.91,96.92-81.13,302.43-81.13,399.35,0,67.16,56.24,40.62,90.22-68.24,107.91-85.11,13.83-177.76,13.83-262.87,0h0Z"/><path class="b" d="m368.83,211.7c-108.64-17.6-135.13-51.41-68.1-107.36,96.73-80.72,301.83-80.72,398.55,0,67.03,55.95,40.53,89.76-68.1,107.36-84.94,13.76-177.41,13.76-262.35,0h0Z"/><path class="am" d="m369.09,211.04c-108.42-17.51-134.86-51.14-67.97-106.8,96.53-80.3,301.22-80.3,397.75,0,66.89,55.66,40.45,89.3-67.97,106.8-84.77,13.69-177.05,13.69-261.82,0h0Z"/><path class="az" d="m369.35,210.39c-108.2-17.42-134.59-50.88-67.83-106.25,96.34-79.89,300.62-79.89,396.95,0,66.76,55.37,40.37,88.83-67.83,106.25-84.6,13.62-176.7,13.62-261.3,0h0Z"/><path class="az" d="m369.62,209.73c-107.98-17.33-134.31-50.61-67.69-105.7,96.14-79.47,300.01-79.47,396.16,0,66.62,55.09,40.29,88.37-67.69,105.7-84.43,13.55-176.34,13.55-260.77,0h0Z"/><path class="az" d="m369.88,209.08c-107.77-17.24-134.04-50.35-67.56-105.15,95.95-79.06,299.4-79.06,395.36,0,66.49,54.8,40.21,87.91-67.56,105.15-84.26,13.48-175.99,13.48-260.24,0h0Z"/><path class="bj" d="m370.14,208.43c-107.55-17.15-133.77-50.09-67.42-104.6,95.76-78.64,298.8-78.64,394.56,0,66.35,54.51,40.13,87.45-67.42,104.6-84.09,13.41-175.63,13.41-259.72,0h0Z"/><path class="s" d="m370.4,207.77c-107.33-17.06-133.5-49.82-67.28-104.04,95.56-78.23,298.19-78.23,393.76,0,66.22,54.22,40.05,86.99-67.28,104.04-83.92,13.34-175.27,13.34-259.19,0h0Z"/><path class="y" d="m370.67,207.12c-107.11-16.97-133.23-49.56-67.15-103.49,95.37-77.81,297.59-77.81,392.96,0,66.08,53.93,39.97,86.53-67.15,103.49-83.75,13.27-174.92,13.27-258.67,0h0Z"/><path class="y" d="m370.93,206.46c-106.89-16.88-132.96-49.29-67.01-102.94,95.17-77.4,296.98-77.4,392.16,0,65.95,53.65,39.88,86.06-67.01,102.94-83.58,13.2-174.56,13.2-258.14,0h0Z"/><path class="bo" d="m371.19,205.81c-106.68-16.78-132.69-49.03-66.87-102.39,94.98-76.98,296.38-76.98,391.36,0,65.82,53.36,39.8,85.6-66.87,102.39-83.41,13.13-174.21,13.13-257.61,0h0Z"/><path class="ag" d="m371.46,205.15c-106.46-16.69-132.42-48.76-66.74-101.84,94.79-76.57,295.77-76.57,390.56,0,65.68,53.07,39.72,85.14-66.74,101.84-83.24,13.06-173.85,13.06-257.09,0h0Z"/><path class="ag" d="m371.72,204.5c-106.24-16.6-132.15-48.5-66.6-101.28,94.59-76.15,295.17-76.15,389.76,0,65.55,52.78,39.64,84.68-66.6,101.28-83.07,12.98-173.5,12.98-256.56,0h0Z"/><path class="l" d="m371.98,203.85c-106.02-16.51-131.88-48.24-66.46-100.73,94.4-75.74,294.56-75.74,388.96,0,65.41,52.5,39.56,84.22-66.46,100.73-82.9,12.91-173.14,12.91-256.04,0h0Z"/><path class="ap" d="m372.25,203.19c-105.81-16.42-131.6-47.97-66.33-100.18,94.21-75.32,293.96-75.32,388.16,0,65.28,52.21,39.48,83.76-66.33,100.18-82.73,12.84-172.78,12.84-255.51,0h0Z"/><path class="bk" d="m372.51,202.54c-105.59-16.33-131.33-47.71-66.19-99.63,94.01-74.91,293.35-74.91,387.36,0,65.14,51.92,39.4,83.3-66.19,99.63-82.56,12.77-172.43,12.77-254.98,0h0Z"/><path class="bk" d="m372.77,201.88c-105.37-16.24-131.06-47.44-66.05-99.08,93.82-74.49,292.75-74.49,386.57,0,65.01,51.63,39.32,82.83-66.05,99.08-82.39,12.7-172.07,12.7-254.46,0h0Z"/><path class="be" d="m373.03,201.23c-105.15-16.15-130.79-47.18-65.92-98.52,93.62-74.08,292.14-74.08,385.77,0,64.87,51.35,39.23,82.37-65.92,98.52-82.22,12.63-171.72,12.63-253.93,0h0Z"/><path class="bl" d="m373.3,200.57c-104.93-16.06-130.52-46.91-65.78-97.97,93.43-73.66,291.54-73.66,384.97,0,64.74,51.06,39.15,81.91-65.78,97.97-82.04,12.56-171.36,12.56-253.41,0h0Z"/><path class="bn" d="m373.56,199.92c-104.72-15.97-130.25-46.65-65.64-97.42,93.24-73.25,290.93-73.25,384.17,0,64.61,50.77,39.07,81.45-65.64,97.42-81.87,12.49-171.01,12.49-252.88,0h0Z"/><path class="bn" d="m373.82,199.27c-104.5-15.88-129.98-46.39-65.51-96.87,93.04-72.83,290.33-72.83,383.37,0,64.47,50.48,38.99,80.99-65.51,96.87-81.7,12.42-170.65,12.42-252.35,0h0Z"/><path class="df" d="m374.09,198.61c-104.28-15.79-129.71-46.12-65.37-96.32,92.85-72.42,289.72-72.42,382.57,0,64.34,50.19,38.91,80.53-65.37,96.32-81.53,12.35-170.29,12.35-251.83,0h0Z"/><path class="bf" d="m374.35,197.96c-104.06-15.7-129.44-45.86-65.23-95.76,92.65-72,289.12-72,381.77,0,64.2,49.91,38.83,80.06-65.23,95.76-81.36,12.28-169.94,12.28-251.3,0h0Z"/><path class="bu" d="m374.61,197.3c-103.85-15.61-129.17-45.59-65.1-95.21,92.46-71.59,288.51-71.59,380.97,0,64.07,49.62,38.75,79.6-65.1,95.21-81.19,12.21-169.58,12.21-250.78,0h0Z"/><path class="bu" d="m374.88,196.65c-103.63-15.52-128.9-45.33-64.96-94.66,92.27-71.17,287.91-71.17,380.17,0,63.93,49.33,38.67,79.14-64.96,94.66-81.02,12.14-169.23,12.14-250.25,0h0Z"/><path class="g" d="m375.14,195.99c-103.41-15.43-128.62-45.06-64.83-94.11,92.07-70.76,287.3-70.76,379.37,0,63.8,49.04,38.58,78.68-64.83,94.11-80.85,12.06-168.87,12.06-249.72,0h0Z"/><path class="w" d="m375.4,195.34c-103.19-15.34-128.35-44.8-64.69-93.56,91.88-70.34,286.7-70.34,378.57,0,63.67,48.76,38.5,78.22-64.69,93.56-80.68,11.99-168.52,11.99-249.2,0h0Z"/><path class="w" d="m375.66,194.69c-102.97-15.25-128.08-44.53-64.55-93,91.68-69.93,286.09-69.93,377.78,0,63.53,48.47,38.42,77.76-64.55,93-80.51,11.92-168.16,11.92-248.67,0h0Z"/><path class="cl" d="m375.93,194.03c-102.76-15.16-127.81-44.27-64.42-92.45,91.49-69.51,285.49-69.51,376.98,0,63.4,48.18,38.34,77.3-64.42,92.45-80.34,11.85-167.8,11.85-248.15,0h0Z"/><path class="ab" d="m376.19,193.38c-102.54-15.06-127.54-44.01-64.28-91.9,91.3-69.1,284.88-69.1,376.18,0,63.26,47.89,38.26,76.83-64.28,91.9-80.17,11.78-167.45,11.78-247.62,0h0Z"/><path class="bp" d="m376.45,192.72c-102.32-14.97-127.27-43.74-64.14-91.35,91.1-68.68,284.28-68.68,375.38,0,63.13,47.61,38.18,76.37-64.14,91.35-80,11.71-167.09,11.71-247.09,0h0Z"/><path class="bp" d="m376.72,192.07c-102.1-14.88-127-43.48-64.01-90.8,90.91-68.27,283.67-68.27,374.58,0,62.99,47.32,38.1,75.91-64.01,90.8-79.83,11.64-166.74,11.64-246.57,0h0Z"/><path class="de" d="m376.98,191.41c-101.88-14.79-126.73-43.21-63.87-90.24,90.71-67.85,283.07-67.85,373.78,0,62.86,47.03,38.02,75.45-63.87,90.24-79.66,11.57-166.38,11.57-246.04,0h0Z"/><path class="de" d="m377.24,190.76c-101.67-14.7-126.46-42.95-63.73-89.69,90.52-67.44,282.46-67.44,372.98,0,62.72,46.74,37.93,74.99-63.73,89.69-79.49,11.5-166.03,11.5-245.52,0h0Z"/><path class="dc" d="m377.51,190.1c-101.45-14.61-126.19-42.68-63.6-89.14,90.33-67.02,281.86-67.02,372.18,0,62.59,46.46,37.85,74.53-63.6,89.14-79.32,11.43-165.67,11.43-244.99,0h0Z"/><path class="dc" d="m377.77,189.45c-101.23-14.52-125.92-42.42-63.46-88.59,90.13-66.61,281.25-66.61,371.38,0,62.46,46.17,37.77,74.06-63.46,88.59-79.15,11.36-165.31,11.36-244.46,0h0Z"/><path class="cq" d="m378.03,188.8c-101.01-14.43-125.65-42.16-63.32-88.04,89.94-66.19,280.65-66.19,370.58,0,62.32,45.88,37.69,73.6-63.32,88.04-78.98,11.29-164.96,11.29-243.94,0h0Z"/><path class="cq" d="m378.29,188.14c-100.8-14.34-125.37-41.89-63.19-87.48,89.75-65.78,280.04-65.78,369.79,0,62.19,45.59,37.61,73.14-63.19,87.48-78.81,11.22-164.6,11.22-243.41,0h0Z"/><path class="co" d="m378.56,187.49c-100.58-14.25-125.1-41.63-63.05-86.93,89.55-65.36,279.44-65.36,368.99,0,62.05,45.3,37.53,72.68-63.05,86.93-78.64,11.14-164.25,11.14-242.89,0h0Z"/><path class="co" d="m378.82,186.83c-100.36-14.16-124.83-41.36-62.91-86.38,89.36-64.95,278.83-64.95,368.19,0,61.92,45.02,37.45,72.22-62.91,86.38-78.47,11.07-163.89,11.07-242.36,0h0Z"/><path class="c" d="m379.08,186.18c-100.14-14.07-124.56-41.1-62.78-85.83,89.16-64.53,278.22-64.53,367.39,0,61.78,44.73,37.36,71.76-62.78,85.83-78.3,11-163.54,11-241.83,0h0Z"/><path class="cp" d="m379.35,185.52c-99.92-13.98-124.29-40.83-62.64-85.28,88.97-64.12,277.62-64.12,366.59,0,61.65,44.44,37.28,71.3-62.64,85.28-78.13,10.93-163.18,10.93-241.31,0h0Z"/><path class="cp" d="m379.61,184.87c-99.71-13.89-124.02-40.57-62.5-84.72,88.78-63.7,277.01-63.7,365.79,0,61.52,44.15,37.2,70.83-62.5,84.72-77.96,10.86-162.82,10.86-240.78,0h0Z"/><path class="bv" d="m379.87,184.22c-99.49-13.8-123.75-40.31-62.37-84.17,88.58-63.29,276.41-63.29,364.99,0,61.38,43.87,37.12,70.37-62.37,84.17-77.79,10.79-162.47,10.79-240.26,0h0Z"/><path class="cn" d="m380.14,183.56c-99.27-13.71-123.48-40.04-62.23-83.62,88.39-62.87,275.8-62.87,364.19,0,61.25,43.58,37.04,69.91-62.23,83.62-77.62,10.72-162.11,10.72-239.73,0h0Z"/><path class="cd" d="m380.4,182.91c-99.05-13.62-123.21-39.78-62.09-83.07,88.19-62.46,275.2-62.46,363.39,0,61.11,43.29,36.96,69.45-62.09,83.07-77.45,10.65-161.76,10.65-239.2,0h0Z"/><path class="cd" d="m380.66,182.25c-98.84-13.53-122.94-39.51-61.96-82.51,88-62.04,274.59-62.04,362.59,0,60.98,43,36.88,68.99-61.96,82.51-77.28,10.58-161.4,10.58-238.68,0h0Z"/><path class="o" d="m380.92,181.6c-98.62-13.44-122.66-39.25-61.82-81.96,87.81-61.63,273.99-61.63,361.79,0,60.84,42.71,36.8,68.53-61.82,81.96-77.11,10.51-161.05,10.51-238.15,0h0Z"/><path class="ax" d="m381.19,180.94c-98.4-13.35-122.39-38.98-61.69-81.41,87.61-61.21,273.38-61.21,361,0,60.71,42.43,36.71,68.06-61.69,81.41-76.94,10.44-160.69,10.44-237.63,0h0Z"/><path class="di" d="m381.45,180.29c-98.18-13.26-122.12-38.72-61.55-80.86,87.42-60.8,272.78-60.8,360.2,0,60.57,42.14,36.63,67.6-61.55,80.86-76.77,10.37-160.33,10.37-237.1,0h0Z"/><path class="di" d="m381.71,179.64c-97.96-13.17-121.85-38.46-61.41-80.31,87.22-60.38,272.17-60.38,359.4,0,60.44,41.85,36.55,67.14-61.41,80.31-76.59,10.3-159.98,10.3-236.57,0h0Z"/><path class="di" d="m381.98,178.98c-97.75-13.07-121.58-38.19-61.27-79.75,87.03-59.97,271.57-59.97,358.6,0,60.31,41.56,36.47,66.68-61.27,79.75-76.42,10.22-159.62,10.22-236.05,0h0Z"/><path class="cz" d="m382.24,178.33c-97.53-12.98-121.31-37.93-61.14-79.2,86.84-59.55,270.96-59.55,357.8,0,60.17,41.28,36.39,66.22-61.14,79.2-76.25,10.15-159.27,10.15-235.52,0h0Z"/><path class="e" d="m382.5,177.67c-97.31-12.89-121.04-37.66-61-78.65,86.64-59.14,270.36-59.14,357,0,60.04,40.99,36.31,65.76-61,78.65-76.08,10.08-158.91,10.08-235,0h0Z"/><path class="e" d="m382.77,177.02c-97.09-12.8-120.77-37.4-60.87-78.1,86.45-58.72,269.75-58.72,356.2,0,59.9,40.7,36.23,65.3-60.87,78.1-75.91,10.01-158.56,10.01-234.47,0h0Z"/><path class="e" d="m383.03,176.36c-96.88-12.71-120.5-37.13-60.73-77.55,86.25-58.31,269.15-58.31,355.4,0,59.77,40.41,36.15,64.83-60.73,77.55-75.74,9.94-158.2,9.94-233.94,0h0Z"/><path class="ay" d="m383.29,175.71c-96.66-12.62-120.23-36.87-60.59-76.99,86.06-57.89,268.54-57.89,354.6,0,59.63,40.13,36.06,64.37-60.59,76.99-75.57,9.87-157.84,9.87-233.42,0h0Z"/><path class="ay" d="m383.55,175.06c-96.44-12.53-119.96-36.6-60.46-76.44,85.87-57.48,267.94-57.48,353.8,0,59.5,39.84,35.98,63.91-60.46,76.44-75.4,9.8-157.49,9.8-232.89,0h0Z"/><path class="da" d="m383.82,174.4c-96.22-12.44-119.68-36.34-60.32-75.89,85.67-57.06,267.33-57.06,353.01,0,59.37,39.55,35.9,63.45-60.32,75.89-75.23,9.73-157.13,9.73-232.37,0h0Z"/><path class="bz" d="m384.08,173.75c-96-12.35-119.41-36.08-60.18-75.34,85.48-56.65,266.73-56.65,352.21,0,59.23,39.26,35.82,62.99-60.18,75.34-75.06,9.66-156.78,9.66-231.84,0h0Z"/><path class="av" d="m384.34,173.09c-95.79-12.26-119.14-35.81-60.05-74.79,85.28-56.23,266.12-56.23,351.41,0,59.1,38.97,35.74,62.53-60.05,74.79-74.89,9.59-156.42,9.59-231.31,0h0Z"/><path class="av" d="m384.61,172.44c-95.57-12.17-118.87-35.55-59.91-74.23,85.09-55.81,265.52-55.81,350.61,0,58.96,38.69,35.66,62.06-59.91,74.23-74.72,9.52-156.07,9.52-230.79,0h0Z"/><path class="dg" d="m384.87,171.78c-95.35-12.08-118.6-35.28-59.77-73.68,84.9-55.4,264.91-55.4,349.81,0,58.83,38.4,35.58,61.6-59.77,73.68-74.55,9.45-155.71,9.45-230.26,0h0Z"/><path class="dg" d="m385.13,171.13c-95.13-11.99-118.33-35.02-59.64-73.13,84.7-54.98,264.31-54.98,349.01,0,58.69,38.11,35.5,61.14-59.64,73.13-74.38,9.38-155.36,9.38-229.74,0h0Z"/><path class="t" d="m385.4,170.48c-94.91-11.9-118.06-34.75-59.5-72.58,84.51-54.57,263.7-54.57,348.21,0,58.56,37.82,35.41,60.68-59.5,72.58-74.21,9.3-155,9.3-229.21,0h0Z"/><path class="t" d="m385.66,169.82c-94.7-11.81-117.79-34.49-59.36-72.03,84.31-54.15,263.1-54.15,347.41,0,58.42,37.54,35.33,60.22-59.36,72.03-74.04,9.23-154.64,9.23-228.68,0h0Z"/><path class="t" d="m385.92,169.17c-94.48-11.72-117.52-34.23-59.23-71.47,84.12-53.74,262.49-53.74,346.61,0,58.29,37.25,35.25,59.76-59.23,71.47-73.87,9.16-154.29,9.16-228.16,0h0Z"/><path class="cg" d="m386.18,168.51c-94.26-11.63-117.25-33.96-59.09-70.92,83.93-53.32,261.89-53.32,345.81,0,58.16,36.96,35.17,59.3-59.09,70.92-73.7,9.09-153.93,9.09-227.63,0h0Z"/><path class="at" d="m386.45,167.86c-94.04-11.54-116.98-33.7-58.95-70.37,83.73-52.91,261.28-52.91,345.01,0,58.02,36.67,35.09,58.83-58.95,70.37-73.53,9.02-153.58,9.02-227.11,0h0Z"/><path class="at" d="m386.71,167.2c-93.83-11.45-116.7-33.43-58.82-69.82,83.54-52.49,260.68-52.49,344.21,0,57.89,36.39,35.01,58.37-58.82,69.82-73.36,8.95-153.22,8.95-226.58,0h0Z"/><path class="cv" d="m386.97,166.55c-93.61-11.35-116.43-33.17-58.68-69.27,83.34-52.08,260.07-52.08,343.42,0,57.75,36.1,34.93,57.91-58.68,69.27-73.19,8.88-152.87,8.88-226.05,0h0Z"/><path class="ar" d="m387.24,165.9c-93.39-11.26-116.16-32.9-58.54-68.71,83.15-51.66,259.47-51.66,342.62,0,57.62,35.81,34.85,57.45-58.54,68.71-73.02,8.81-152.51,8.81-225.53,0h0Z"/><path class="ar" d="m387.5,165.24c-93.17-11.17-115.89-32.64-58.41-68.16,82.96-51.25,258.86-51.25,341.82,0,57.48,35.52,34.76,56.99-58.41,68.16-72.85,8.74-152.15,8.74-225,0h0Z"/><path class="ar" d="m387.76,164.59c-92.95-11.08-115.62-32.38-58.27-67.61,82.76-50.83,258.26-50.83,341.02,0,57.35,35.23,34.68,56.53-58.27,67.61-72.68,8.67-151.8,8.67-224.48,0h0Z"/><path class="aa" d="m388.03,163.93c-92.74-10.99-115.35-32.11-58.13-67.06,82.57-50.42,257.65-50.42,340.22,0,57.22,34.95,34.6,56.07-58.13,67.06-72.51,8.6-151.44,8.6-223.95,0h0Z"/><path class="bi" d="m388.29,163.28c-92.52-10.9-115.08-31.85-58-66.51,82.38-50,257.04-50,339.42,0,57.08,34.66,34.52,55.6-58,66.51-72.34,8.53-151.09,8.53-223.42,0h0Z"/><path class="bi" d="m388.55,162.62c-92.3-10.81-114.81-31.58-57.86-65.95,82.18-49.59,256.44-49.59,338.62,0,56.95,34.37,34.44,55.14-57.86,65.95-72.17,8.46-150.73,8.46-222.9,0h0Z"/><path class="ak" d="m388.81,161.97c-92.08-10.72-114.54-31.32-57.73-65.4,81.99-49.17,255.83-49.17,337.82,0,56.81,34.08,34.36,54.68-57.73,65.4-72,8.38-150.38,8.38-222.37,0h0Z"/><path class="cx" d="m389.08,161.32c-91.87-10.63-114.27-31.05-57.59-64.85,81.79-48.76,255.23-48.76,337.02,0,56.68,33.8,34.28,54.22-57.59,64.85-71.83,8.31-150.02,8.31-221.85,0h0Z"/><path class="cu" d="m389.34,160.66c-91.65-10.54-114-30.79-57.45-64.3,81.6-48.34,254.62-48.34,336.22,0,56.54,33.51,34.2,53.76-57.45,64.3-71.66,8.24-149.66,8.24-221.32,0h0Z"/><path class="cu" d="m389.6,160.01c-91.43-10.45-113.72-30.52-57.32-63.75,81.41-47.93,254.02-47.93,335.42,0,56.41,33.22,34.11,53.3-57.32,63.75-71.49,8.17-149.31,8.17-220.79,0h0Z"/><path class="ao" d="m389.87,159.35c-91.21-10.36-113.45-30.26-57.18-63.19,81.21-47.51,253.41-47.51,334.63,0,56.27,32.93,34.03,52.83-57.18,63.19-71.32,8.1-148.95,8.1-220.27,0h0Z"/><path class="ai" d="m390.13,158.7c-90.99-10.27-113.18-30-57.04-62.64,81.02-47.1,252.81-47.1,333.83,0,56.14,32.65,33.95,52.37-57.04,62.64-71.15,8.03-148.6,8.03-219.74,0h0Z"/><path class="r" d="m390.39,158.04c-90.78-10.18-112.91-29.73-56.91-62.09,80.82-46.68,252.2-46.68,333.03,0,56.01,32.36,33.87,51.91-56.91,62.09-70.98,7.96-148.24,7.96-219.22,0h0Z"/><path class="r" d="m390.66,157.39c-90.56-10.09-112.64-29.47-56.77-61.54,80.63-46.27,251.6-46.27,332.23,0,55.87,32.07,33.79,51.45-56.77,61.54-70.81,7.89-147.89,7.89-218.69,0h0Z"/><path class="v" d="m390.92,156.73c-90.34-10-112.37-29.2-56.63-60.99,80.44-45.85,250.99-45.85,331.43,0,55.74,31.78,33.71,50.99-56.63,60.99-70.63,7.82-147.53,7.82-218.16,0h0Z"/><path class="v" d="m391.18,156.08c-90.12-9.91-112.1-28.94-56.5-60.43,80.24-45.44,250.39-45.44,330.63,0,55.6,31.5,33.63,50.53-56.5,60.43-70.46,7.75-147.17,7.75-217.64,0h0Z"/><path class="v" d="m391.44,155.43c-89.9-9.82-111.83-28.67-56.36-59.88,80.05-45.02,249.78-45.02,329.83,0,55.47,31.21,33.54,50.07-56.36,59.88-70.29,7.68-146.82,7.68-217.11,0h0Z"/><path class="f" d="m391.71,154.77c-89.69-9.73-111.56-28.41-56.22-59.33,79.85-44.61,249.18-44.61,329.03,0,55.33,30.92,33.46,49.6-56.22,59.33-70.12,7.61-146.46,7.61-216.59,0h0Z"/><path class="f" d="m391.97,154.12c-89.47-9.64-111.29-28.15-56.09-58.78,79.66-44.19,248.57-44.19,328.23,0,55.2,30.63,33.38,49.14-56.09,58.78-69.95,7.53-146.11,7.53-216.06,0h0Z"/><path class="ac" d="m392.23,153.46c-89.25-9.55-111.02-27.88-55.95-58.23,79.47-43.78,247.97-43.78,327.43,0,55.07,30.34,33.3,48.68-55.95,58.23-69.78,7.46-145.75,7.46-215.53,0h0Z"/><path class="ac" d="m392.5,152.81c-89.03-9.45-110.74-27.62-55.81-57.67,79.27-43.36,247.36-43.36,326.63,0,54.93,30.06,33.22,48.22-55.81,57.67-69.61,7.39-145.4,7.39-215.01,0h0Z"/><path class="bc" d="m392.76,152.15c-88.82-9.36-110.47-27.35-55.68-57.12,79.08-42.95,246.76-42.95,325.84,0,54.8,29.77,33.14,47.76-55.68,57.12-69.44,7.32-145.04,7.32-214.48,0h0Z"/><path class="an" d="m393.02,151.5c-88.6-9.27-110.2-27.09-55.54-56.57,78.88-42.53,246.15-42.53,325.04,0,54.66,29.48,33.06,47.3-55.54,56.57-69.27,7.25-144.68,7.25-213.96,0h0Z"/><path class="an" d="m393.29,150.85c-88.38-9.18-109.93-26.82-55.4-56.02,78.69-42.12,245.55-42.12,324.24,0,54.53,29.19,32.98,46.83-55.4,56.02-69.1,7.18-144.33,7.18-213.43,0h0Z"/><path class="an" d="m393.55,150.19c-88.16-9.09-109.66-26.56-55.27-55.47,78.5-41.7,244.94-41.7,323.44,0,54.39,28.91,32.9,46.37-55.27,55.47-68.93,7.11-143.97,7.11-212.9,0h0Z"/><path class="m" d="m393.81,149.54c-87.95-9-109.39-26.3-55.13-54.91,78.3-41.29,244.34-41.29,322.64,0,54.26,28.62,32.81,45.91-55.13,54.91-68.76,7.04-143.62,7.04-212.38,0h0Z"/><path class="cc" d="m394.07,148.88c-87.73-8.91-109.12-26.03-54.99-54.36,78.11-40.87,243.73-40.87,321.84,0,54.12,28.33,32.73,45.45-54.99,54.36-68.59,6.97-143.26,6.97-211.85,0h0Z"/><path class="dd" d="m394.34,148.23c-87.51-8.82-108.85-25.77-54.86-53.81,77.92-40.46,243.13-40.46,321.04,0,53.99,28.04,32.65,44.99-54.86,53.81-68.42,6.9-142.91,6.9-211.33,0h0Z"/><path class="dd" d="m394.6,147.58c-87.29-8.73-108.58-25.5-54.72-53.26,77.72-40.04,242.52-40.04,320.24,0,53.86,27.76,32.57,44.53-54.72,53.26-68.25,6.83-142.55,6.83-210.8,0h0Z"/><path class="cf" d="m394.86,146.92c-87.07-8.64-108.31-25.24-54.58-52.71,77.53-39.63,241.92-39.63,319.44,0,53.72,27.47,32.49,44.07-54.58,52.71-68.08,6.76-142.19,6.76-210.27,0h0Z"/><path class="cf" d="m395.13,146.27c-86.86-8.55-108.03-24.97-54.45-52.15,77.33-39.21,241.31-39.21,318.64,0,53.59,27.18,32.41,43.6-54.45,52.15-67.91,6.69-141.84,6.69-209.75,0h0Z"/><path class="cf" d="m395.39,145.61c-86.64-8.46-107.76-24.71-54.31-51.6,77.14-38.8,240.71-38.8,317.85,0,53.45,26.89,32.33,43.14-54.31,51.6-67.74,6.62-141.48,6.62-209.22,0h0Z"/><path class="bh" d="m395.65,144.96c-86.42-8.37-107.49-24.44-54.18-51.05,76.95-38.38,240.1-38.38,317.05,0,53.32,26.6,32.24,42.68-54.17,51.05-67.57,6.54-141.13,6.54-208.7,0h0Z"/><path class="cy" d="m395.92,144.3c-86.2-8.28-107.22-24.18-54.04-50.5,76.75-37.97,239.5-37.97,316.25,0,53.18,26.32,32.16,42.22-54.04,50.5-67.4,6.47-140.77,6.47-208.17,0h0Z"/><path class="p" d="m396.18,143.65c-85.98-8.19-106.95-23.92-53.9-49.95,76.56-37.55,238.89-37.55,315.45,0,53.05,26.03,32.08,41.76-53.9,49.95-67.23,6.4-140.42,6.4-207.64,0h0Z"/><path class="p" d="m396.44,142.99c-85.77-8.1-106.68-23.65-53.77-49.39,76.36-37.14,238.29-37.14,314.65,0,52.92,25.74,32,41.3-53.77,49.39-67.06,6.33-140.06,6.33-207.12,0h0Z"/><path class="p" d="m396.7,142.34c-85.55-8.01-106.41-23.39-53.63-48.84,76.17-36.72,237.68-36.72,313.85,0,52.78,25.45,31.92,40.83-53.63,48.84-66.89,6.26-139.7,6.26-206.59,0h0Z"/><path class="bs" d="m396.97,141.69c-85.33-7.92-106.14-23.12-53.49-48.29,75.98-36.31,237.07-36.31,313.05,0,52.65,25.17,31.84,40.37-53.49,48.29-66.72,6.19-139.35,6.19-206.07,0h0Z"/><path class="bs" d="m397.23,141.03c-85.11-7.83-105.87-22.86-53.36-47.74,75.78-35.89,236.47-35.89,312.25,0,52.51,24.88,31.76,39.91-53.36,47.74-66.55,6.12-138.99,6.12-205.54,0h0Z"/><path class="bs" d="m397.49,140.38c-84.9-7.73-105.6-22.59-53.22-47.19,75.59-35.48,235.86-35.48,311.45,0,52.38,24.59,31.68,39.45-53.22,47.19-66.38,6.05-138.64,6.05-205.01,0h0Z"/><path class="bb" d="m397.76,139.72c-84.68-7.64-105.33-22.33-53.08-46.63,75.39-35.06,235.26-35.06,310.65,0,52.24,24.3,31.59,38.99-53.08,46.63-66.21,5.98-138.28,5.98-204.49,0h0Z"/><path class="bb" d="m398.02,139.07c-84.46-7.55-105.06-22.07-52.95-46.08,75.2-34.65,234.65-34.65,309.86,0,52.11,24.02,31.51,38.53-52.95,46.08-66.04,5.91-137.93,5.91-203.96,0h0Z"/><path class="bb" d="m398.28,138.42c-84.24-7.46-104.78-21.8-52.81-45.53,75.01-34.23,234.05-34.23,309.06,0,51.97,23.73,31.43,38.07-52.81,45.53-65.87,5.84-137.57,5.84-203.44,0h0Z"/></svg>