<svg xmlns="http://www.w3.org/2000/svg" xmlns:xlink="http://www.w3.org/1999/xlink" viewBox="0 0 931.53 811.34"><defs><clipPath id="a"><path d="M0,390.89C0,653.31,222.17,811.34,493.49,811.34h0c248,0,438-179.66,438-324.88h0c0-136.31-85.77-202-197-275.81h0C634.53,144.48,558.19,0,352.52,0h0C121.49,0,0,211.18,0,390.89" fill="none"/></clipPath><linearGradient id="b" x1="546.37" y1="712.76" x2="566.32" y2="712.76" gradientTransform="matrix(27.81, -27.81, -27.81, -27.81, 4779.87, 35726.16)" gradientUnits="userSpaceOnUse"><stop offset="0" stop-color="#ff0"/><stop offset="0.31" stop-color="#00d217"/><stop offset="0.5" stop-color="#00d217"/><stop offset="0.69" stop-color="#00d217"/><stop offset="1" stop-color="#00cdff"/></linearGradient></defs><g clip-path="url(#a)"><path d="M0,390.89C0,653.31,222.17,811.34,493.49,811.34h0c248,0,438-179.66,438-324.88h0c0-136.31-85.77-202-197-275.81h0C634.53,144.48,558.19,0,352.52,0h0C121.49,0,0,211.18,0,390.89" fill="url(#b)"/></g><path d="M379.64,519.42c-28.74,0-44.66-29.55-44.66-59.48s15.92-58.62,44.66-58.62,44.54,28.7,44.54,58.62-15.88,59.48-44.54,59.48m0-171c-62.71,0-104.43,49.6-104.43,111.82s41.72,111.86,104.43,111.86c62.54,0,104.18-49.56,104.18-111.86S442.18,348.45,379.64,348.45m170.08.12c-21.07,0-38.18,50.05-38.18,111.82s17.11,111.82,38.18,111.82,38.13-50.05,38.13-111.82-17.07-111.82-38.13-111.82m-.49-27.76a37.46,37.46,0,1,0-37.4-37.47,37.42,37.42,0,0,0,37.4,37.47" fill="#fff"/></svg>