<?xml version="1.0" standalone="no"?>
<!DOCTYPE svg PUBLIC "-//W3C//DTD SVG 20010904//EN"
 "http://www.w3.org/TR/2001/REC-SVG-20010904/DTD/svg10.dtd">
<svg version="1.0" xmlns="http://www.w3.org/2000/svg"
 width="65.000000pt" height="77.000000pt" viewBox="0 0 65.000000 77.000000"
 preserveAspectRatio="xMidYMid meet">

<g transform="translate(0.000000,77.000000) scale(0.100000,-0.100000)"
fill="#000000" stroke="none">
<path d="M200 680 c0 -79 0 -80 25 -80 25 0 25 1 25 80 0 79 0 80 -25 80 -25
0 -25 -1 -25 -80z"/>
<path d="M200 385 c0 -52 1 -55 25 -55 24 0 25 3 25 55 0 52 -1 55 -25 55 -24
0 -25 -3 -25 -55z"/>
<path d="M442 199 c2 -6 8 -10 13 -10 5 0 11 4 13 10 2 6 -4 11 -13 11 -9 0
-15 -5 -13 -11z"/>
<path d="M17 163 c-4 -3 -7 -33 -7 -65 l0 -58 38 0 c66 0 97 65 52 110 -19 19
-69 27 -83 13z m71 -35 c16 -16 15 -33 -4 -52 -28 -28 -44 -20 -44 24 0 32 4
40 18 40 10 0 23 -5 30 -12z"/>
<path d="M170 105 l0 -65 40 0 c45 0 55 17 13 22 -35 4 -43 28 -9 28 32 0 35
17 4 22 -33 4 -29 32 5 36 42 5 32 22 -13 22 l-40 0 0 -65z"/>
<path d="M297 163 c-4 -3 -7 -39 -7 -80 0 -58 3 -73 15 -73 10 0 15 11 15 35
0 30 3 35 23 35 44 0 62 43 31 74 -15 16 -65 22 -77 9z m63 -28 c15 -18 5 -35
-21 -35 -12 0 -19 7 -19 18 0 33 20 42 40 17z"/>
<path d="M445 158 c-9 -24 -1 -113 10 -111 14 4 19 103 6 116 -7 7 -12 5 -16
-5z"/>
<path d="M530 158 c0 -6 7 -19 16 -29 16 -18 15 -29 -8 -61 -20 -28 2 -35 23
-8 l19 25 20 -23 c11 -13 24 -20 30 -17 8 5 4 15 -11 32 -19 20 -21 27 -11 41
32 45 26 70 -8 31 l-21 -24 -15 23 c-18 24 -34 29 -34 10z"/>
</g>
</svg>
